<?xml version="1.0" encoding="utf-8"?><svg viewBox="0 0 52 52" xmlns="http://www.w3.org/2000/svg" xmlns:xlink="http://www.w3.org/1999/xlink"><style>:root>svg{display:none}:root>svg:target{display:block}</style><svg fill="none" viewBox="0 0 50 50" id="chips" xmlns="http://www.w3.org/2000/svg"><path d="M25.048 26.98c-4.613 0-8.367 3.753-8.367 8.366 0 4.613 3.754 8.366 8.367 8.366 4.613 0 8.366-3.753 8.366-8.366 0-4.613-3.753-8.367-8.366-8.367zm0 15.267a6.91 6.91 0 01-6.902-6.901 6.91 6.91 0 016.902-6.902 6.91 6.91 0 016.902 6.902 6.91 6.91 0 01-6.902 6.901z" fill="#FF8635"/><path d="M42.574 16.383h-.057l1.672-8.09a2.154 2.154 0 00-.335-1.681 1.91 1.91 0 00-1.319-.798l-2.82-.373a1.977 1.977 0 00-.628.019l.025-.21a2.199 2.199 0 00-.482-1.67 1.946 1.946 0 00-1.392-.701l-2.089-.12a2.273 2.273 0 00-.443-1.646A1.991 1.991 0 0033.345.34l-2.91-.326c-.538-.061-1.072.1-1.505.45a2.308 2.308 0 00-.828 1.566l-.264 2.744a2.077 2.077 0 00-.238-.292 2.002 2.002 0 00-1.44-.614h-2.888c-.384 0-.752.112-1.071.317l-.208-2.155a2.307 2.307 0 00-.827-1.566 2.017 2.017 0 00-1.505-.45l-2.91.326a1.992 1.992 0 00-1.361.774 2.273 2.273 0 00-.444 1.646l-2.088.12c-.544.03-1.039.28-1.393.702a2.199 2.199 0 00-.481 1.668l.024.211a1.977 1.977 0 00-.627-.02l-2.821.374a1.91 1.91 0 00-1.318.798 2.154 2.154 0 00-.335 1.681l1.671 8.09h-.057a1.658 1.658 0 00-1.637 1.944l5.222 30.294c.138.799.827 1.379 1.638 1.379h24.608c.811 0 1.5-.58 1.637-1.38l5.223-30.293a1.66 1.66 0 00-1.638-1.944zm-3.7-9.104c.139-.26.4-.42.649-.386l2.82.373a.454.454 0 01.317.194.687.687 0 01.094.537l-1.732 8.386H39.95l.713-5.631a2.034 2.034 0 00-.446-1.56 1.902 1.902 0 00-1.376-.685l-.113-.006.144-1.222zm-1 2.645l.893.046c.167.009.27.093.328.161a.56.56 0 01.116.436l-.737 5.816h-3.421l.396-2.312a1.958 1.958 0 00-.267-1.368l.174-2.258a.693.693 0 01.305-.522.56.56 0 01.34-.094l1.872.095h.001zm-3.636-5.748h.029l2.887.165c.175.01.29.104.354.181.12.143.174.346.15.556l-.226 1.913-.169 1.435-1.188-.06c-1.115-.058-2.091.825-2.18 1.966l-.112 1.451-.685-.108.47-6.775c.028-.402.333-.727.67-.724zm-.233 9.648l-.451 2.634a1.657 1.657 0 00-1.057.997 7.97 7.97 0 01-3.312 3.962l1.178-8.167a.504.504 0 01.201-.338.504.504 0 01.382-.093l1.25.197h.002l1.383.218a.506.506 0 01.424.59zm-6.08 5.29L29.562 2.17a.835.835 0 01.292-.568.563.563 0 01.418-.133l2.911.326c.18.02.298.128.364.214a.806.806 0 01.145.608l-.025.177-.036.012-.046.016a1.852 1.852 0 00-.17.066c-.086.039-.17.083-.25.133l-.022.013c-.05.032-.099.066-.146.103l-.013.009a1.94 1.94 0 00-.241.216 1.83 1.83 0 00-.175.205l-.04.055a2.655 2.655 0 00-.135.212 2.179 2.179 0 00-.052.1l-.023.05a2.38 2.38 0 00-.046.104l-.017.043a2.658 2.658 0 00-.09.296l-.007.028c-.01.05-.02.1-.028.15l-.005.035a2.392 2.392 0 00-.017.16l-.461 6.647-.472-.074a1.957 1.957 0 00-1.48.362c-.428.316-.705.78-.781 1.307l-1.008 6.99.02-.916zm-5.044-13.61a.54.54 0 01.39-.172h2.89c.184 0 .315.094.392.173.135.138.21.337.205.546L26.47 18.72l-.286-5.473c-.03-.57-.268-1.1-.672-1.49a2.02 2.02 0 00-1.524-.58l-1.177.062-.024-.962-.108-4.228a.753.753 0 01.202-.545zm1.184 7.135a.588.588 0 01.429.171.762.762 0 01.227.514l.483 9.247-.156.003a7.934 7.934 0 01-3.524-.819l-.832-8.255a.703.703 0 01.152-.528.505.505 0 01.36-.182l2.861-.15zM16.549 2.01a.535.535 0 01.365-.215l2.91-.326c.186-.02.33.06.42.133.162.132.269.34.29.568l.789 8.171.025.976-.221.012a1.961 1.961 0 00-1.395.69 2.174 2.174 0 00-.498 1.629l.403 3.996-.909-2.177-.74-10.667a2.38 2.38 0 00-.017-.16l-.005-.035a2.47 2.47 0 00-.028-.15l-.006-.026a2.413 2.413 0 00-.034-.13l-.01-.031a2.136 2.136 0 00-.047-.138l-.015-.037a2.344 2.344 0 00-.051-.118l-.01-.022a1.951 1.951 0 00-.088-.164 2.363 2.363 0 00-.072-.116l-.022-.03a1.927 1.927 0 00-.18-.227l-.03-.033a1.965 1.965 0 00-.205-.193l-.033-.025a2.364 2.364 0 00-.126-.093 1.96 1.96 0 00-.113-.072l-.024-.014a1.823 1.823 0 00-.13-.069l-.015-.007a2.078 2.078 0 00-.14-.061h-.002a2.002 2.002 0 00-.155-.054l-.026-.178a.807.807 0 01.145-.608zm-3.962 2.513a.491.491 0 01.354-.18l2.89-.166h.011c.344-.01.657.316.686.724l.44 6.347-.364-.871a2.224 2.224 0 00-1.327-1.253l-.012-.004a2.237 2.237 0 00-.188-.054c-.006 0-.013-.003-.019-.004a2.083 2.083 0 00-.392-.05h-.026l-.03-.001c-.033 0-.065.003-.097.004-.028.002-.056.002-.083.005-.041.004-.082.01-.123.016-.026.005-.052.007-.077.012-.045.01-.09.02-.134.033l-.064.016a2.01 2.01 0 00-.193.07l-.877.366-.132-1.124-.392-3.33a.734.734 0 01.15-.556zm-.826 7.1l.434-.182.436-.182 1.773-.742a.584.584 0 01.462.017c.172.079.31.223.387.407l3.647 8.74a7.953 7.953 0 01-1.3-2.225 1.654 1.654 0 00-1.553-1.072H13.38l-1.863-3.92a.703.703 0 01-.034-.55.49.49 0 01.278-.292zm-4.42-3.625a.687.687 0 01.095-.537.456.456 0 01.316-.193l2.82-.374c.249-.032.51.127.65.386l.155 1.315.18 1.525-.36.151c-.502.21-.885.607-1.082 1.12-.207.54-.178 1.16.08 1.7l1.564 3.293H9.074L7.341 7.997zM42.77 18.078l-2.314 13.419h-4.79a.732.732 0 000 1.465h4.538l-.762 4.418h-3.68a.732.732 0 100 1.465h3.427l-1.642 9.527a.197.197 0 01-.194.163H12.744a.197.197 0 01-.194-.163l-1.643-9.527h3.427a.732.732 0 100-1.465h-3.68l-.761-4.418h4.56a.733.733 0 000-1.465H9.641L7.327 18.078a.19.19 0 01.044-.16.19.19 0 01.15-.07h8.526a.2.2 0 01.185.132 9.426 9.426 0 003.41 4.357 9.38 9.38 0 005.853 1.69l.127-.007a9.424 9.424 0 001.318-.172h.004a9.365 9.365 0 003.51-1.51 9.426 9.426 0 003.41-4.358.2.2 0 01.185-.132h8.526c.075 0 .123.038.15.07a.193.193 0 01.044.16z" fill="#FF8635"/></svg><svg fill="none" viewBox="0 0 16 30" id="discount-slider-arrow" xmlns="http://www.w3.org/2000/svg"><path d="M2.073 15L15.748 1.45a.84.84 0 000-1.2.86.86 0 00-1.212 0L.252 14.402a.84.84 0 000 1.2l14.284 14.146a.866.866 0 00.603.252.84.84 0 00.602-.252.84.84 0 000-1.2L2.073 14.999z" fill="#fff"/></svg><svg fill="none" viewBox="0 0 50 50" id="drinks" xmlns="http://www.w3.org/2000/svg"><g clip-path="url(#cclip0)" fill="#FF8635"><path d="M38.776.614A.735.735 0 0037.93.01l-6.206 1.03c-.471.078-.854.408-1 .862l-1.426 4.411H13.492c-.62 0-1.172.37-1.405.941-.348.855-.749 2.425-.68 5.055.085 3.236.86 7.184 2.303 11.735 2.813 8.87 2.032 17.626 1.37 21.842l-.059.37-.018.112a48.55 48.55 0 01-.098.56A2.61 2.61 0 0017.48 50h12.726a2.623 2.623 0 002.01-.938 2.595 2.595 0 00.565-2.134c-.031-.168-.06-.338-.09-.51-.004-.03-.01-.059-.015-.089a52.863 52.863 0 01-.555-4.599.736.736 0 00-1.466.112c.063.828.145 1.648.243 2.456-.197.15-.438.233-.692.233H17.48c-.253 0-.493-.083-.69-.231.627-5.079.837-12.769-1.678-20.699-1.743-5.496-2.23-9.298-2.236-11.819h1.626l-1.277 2.208a.995.995 0 00.364 1.358l3.185 1.835a.998.998 0 001.361-.364l1.839-3.178a.995.995 0 00-.365-1.359l-.869-.5h4.725a.734.734 0 100-1.468H12.932c.11-1.328.36-2.122.517-2.506a.044.044 0 01.043-.027h15.33l-.818 2.533h-1.117a.735.735 0 100 1.468h7.928c0 .158-.003.32-.007.488-.081 3.1-.833 6.912-2.235 11.331-1.436 4.526-2.133 9.479-2.073 14.72a.735.735 0 00.735.726h.009a.734.734 0 00.727-.742c-.059-5.086.616-9.883 2.004-14.26 1.936-6.105 2.384-10.254 2.297-12.964l.002-.033a.734.734 0 00-.007-.092c-.074-1.896-.411-3.069-.67-3.702a1.51 1.51 0 00-1.404-.941h-3.35l1.243-3.845 6.085-1.01a.734.734 0 00.605-.844zM16.353 47.188c.075-.414.15-.865.225-1.348.285.104.589.159.902.159h12.725c.313 0 .618-.055.903-.16.069.456.144.905.224 1.349a1.136 1.136 0 01-.641 1.237 1.15 1.15 0 01-.486.107H17.48a1.146 1.146 0 01-1.127-1.344zM16.1 11.955l2.363 1.362-1.365 2.358-2.362-1.361 1.364-2.359zm18.093-4.174c.02 0 .036.01.043.027.169.415.413 1.21.522 2.506H29.55l.82-2.533h3.824z"/><path d="M22.87 21.17c.196.162.433.24.67.24.302 0 .602-.128.81-.379l2.835-3.416a1.04 1.04 0 00.238-.767 1.042 1.042 0 00-.376-.71l-3.424-2.83a1.053 1.053 0 00-1.48.138l-2.835 3.417c-.18.215-.263.488-.237.767.026.279.16.531.376.71l3.423 2.83zm.139-6.465l2.776 2.296-2.3 2.771-2.776-2.295 2.3-2.772zM23.388 27.273l3.865 2.887a1.07 1.07 0 00.8.203c.284-.041.537-.19.71-.42l2.891-3.858c.173-.23.245-.513.204-.798a1.067 1.067 0 00-.421-.708l-3.865-2.886a1.08 1.08 0 00-1.509.217l-2.892 3.857a1.076 1.076 0 00.217 1.506zm3.617-4.17l3.237 2.417-2.422 3.23-3.236-2.417 2.422-3.23zM29.221 17.306h.038l2.974-.118c.522-.021.93-.46.909-.982l-.118-2.969a.95.95 0 00-.983-.906l-2.974.117a.947.947 0 00-.909.982l.118 2.968c.02.508.44.908.945.908zm2.354-3.487l.076 1.922-1.926.077-.077-1.923 1.927-.076zM20.884 21.334l-3.125.317a.953.953 0 00-.857 1.048l.317 3.119a.95.95 0 00.348.645.952.952 0 00.703.21l3.125-.317a.952.952 0 00.646-.347.949.949 0 00.21-.701l-.317-3.12a.96.96 0 00-1.05-.854zM18.63 25.16l-.214-2.101 2.106-.214.214 2.102-2.106.213z"/></g><defs><clipPath id="cclip0"><path fill="#fff" d="M0 0h50v50H0z"/></clipPath></defs></svg><svg fill="none" viewBox="0 0 48 50" id="gift-boxes" xmlns="http://www.w3.org/2000/svg"><g clip-path="url(#dclip0)" fill="#FF8635"><path d="M21.003 36.127h12.145a.719.719 0 00.704-.732.719.719 0 00-.704-.733H21.003a.719.719 0 00-.704.733c0 .404.315.732.704.732zM14.904 36.127h2.821a.719.719 0 00.705-.732.719.719 0 00-.705-.733h-2.82a.719.719 0 00-.705.733c0 .404.315.732.704.732zM30.68 38.78H17.372a.719.719 0 00-.705.732c0 .405.316.733.705.733H30.68a.719.719 0 00.705-.733.719.719 0 00-.705-.732zM36.767 5.268c0-1.464-1.146-2.655-2.554-2.655H13.84c-1.408 0-2.554 1.191-2.554 2.655 0 1.464 1.146 2.655 2.554 2.655h20.374c1.408 0 2.554-1.191 2.554-2.655zm-2.554 1.19H13.84c-.631 0-1.145-.534-1.145-1.19 0-.656.514-1.19 1.145-1.19h20.374c.631 0 1.145.534 1.145 1.19 0 .656-.514 1.19-1.145 1.19z"/><path d="M45.932 23.407a.728.728 0 00-.022-.108v-.005l-.002-.005-.002-.006-3.885-13.541V1.968c0-1.14-.891-2.066-1.986-2.066H8.017c-1.095 0-1.986.927-1.986 2.066v7.774l-3.885 13.54-.002.007-.001.005-.001.005a.75.75 0 00-.028.204v23.02c0 1.863 1.458 3.38 3.25 3.38h37.324c1.792 0 3.25-1.517 3.25-3.38v-23.02a.752.752 0 00-.006-.096zM7.26 10.581h12.706l-.542 6.033a1.87 1.87 0 00.448 1.393c.33.378.802.594 1.293.594h5.722c.49 0 .962-.216 1.293-.594a1.87 1.87 0 00.448-1.393l-.541-6.033h4.434a.719.719 0 00.704-.733.719.719 0 00-.704-.732H7.44V1.968c0-.331.259-.601.577-.601h32.018a.59.59 0 01.577.6v7.149H35.8c-.389 0-.704.328-.704.732 0 .405.315.733.704.733h4.993l3.497 12.19H3.763L7.26 10.58zm13.566 6.169l.555-6.17h5.29l.555 6.17a.359.359 0 01-.087.27.332.332 0 01-.252.116h-5.722a.332.332 0 01-.251-.115.359.359 0 01-.088-.271zM44.53 46.523c0 1.055-.827 1.915-1.842 1.915H5.364c-1.015 0-1.842-.86-1.842-1.915V24.235H44.53v22.288z"/></g><defs><clipPath id="dclip0"><path fill="#fff" d="M0 0h48v50H0z"/></clipPath></defs></svg><svg fill="none" viewBox="0 0 36 31" id="header-menu-triangle" xmlns="http://www.w3.org/2000/svg"><g filter="url(#efilter0_d)"><path d="M18 5l12.124 21H5.876L18 5z" fill="#fff"/></g><defs><filter id="efilter0_d" x=".875" y="0" width="34.249" height="31" filterUnits="userSpaceOnUse" color-interpolation-filters="sRGB"><feFlood flood-opacity="0" result="BackgroundImageFix"/><feColorMatrix in="SourceAlpha" values="0 0 0 0 0 0 0 0 0 0 0 0 0 0 0 0 0 0 127 0"/><feOffset/><feGaussianBlur stdDeviation="2.5"/><feColorMatrix values="0 0 0 0 0 0 0 0 0 0 0 0 0 0 0 0 0 0 0.1 0"/><feBlend in2="BackgroundImageFix" result="effect1_dropShadow"/><feBlend in="SourceGraphic" in2="effect1_dropShadow" result="shape"/></filter></defs></svg><svg fill="none" viewBox="0 0 22 27" id="help" xmlns="http://www.w3.org/2000/svg"><path d="M21.36 10.688v-.051C21.303 4.801 16.54.07 10.69.07 4.841.07.077 4.8.021 10.637V10.74a3.248 3.248 0 003.245 3.194h1.46a6.585 6.585 0 002.584 2.864 9.394 9.394 0 00-.805.351.787.787 0 00-.118.059c-3.057 1.56-5.155 4.741-5.155 8.402 0 .426.345.77.77.77h17.315a.77.77 0 00.77-.77c0-3.66-2.098-6.841-5.155-8.402a.784.784 0 00-.118-.059 9.36 9.36 0 00-.805-.35 6.586 6.586 0 002.584-2.865h1.522c.625 0 1.21-.178 1.705-.486v1.77h-1.705a.77.77 0 000 1.54h2.475a.77.77 0 00.77-.77V10.74v-.034-.018zM4.23 12.393h-.965a1.707 1.707 0 01-1.704-1.687v-.069a1.706 1.706 0 011.704-1.653h1.233a6.513 6.513 0 00-.267 3.41zM2.81 24.84a7.897 7.897 0 013.651-5.904l2.952 5.904H2.81zm5.028-6.595a7.85 7.85 0 012.821-.522 7.85 7.85 0 012.822.523l-2.821 5.642-2.822-5.643zm7.02.691a7.897 7.897 0 013.651 5.904h-6.603l2.952-5.904zm-4.199-2.753a5.007 5.007 0 01-5-5.001 5.007 5.007 0 015-5.002 5.007 5.007 0 015.002 5.002 5.007 5.007 0 01-5.002 5zm5.366-8.74A6.539 6.539 0 0010.66 4.64a6.539 6.539 0 00-5.366 2.803H3.265c-.412 0-.807.079-1.17.22C3.36 4.138 6.735 1.61 10.69 1.61c3.955 0 7.33 2.528 8.596 6.053a3.227 3.227 0 00-1.17-.22h-2.091zm2.09 4.95h-1.027a6.549 6.549 0 00-.267-3.41h1.294c.923 0 1.676.738 1.704 1.654v.069a1.707 1.707 0 01-1.704 1.687z" fill="#FF8635"/></svg><svg fill="none" viewBox="0 0 35 35" id="instagram" xmlns="http://www.w3.org/2000/svg"><path d="M17.5 14.02a3.485 3.485 0 00-3.481 3.48 3.486 3.486 0 003.48 3.481c1.92 0 3.481-1.562 3.481-3.481a3.484 3.484 0 00-3.48-3.48zm0 0a3.485 3.485 0 00-3.481 3.48 3.486 3.486 0 003.48 3.481c1.92 0 3.481-1.562 3.481-3.481a3.484 3.484 0 00-3.48-3.48zm5.798-5.675H11.702a3.36 3.36 0 00-3.357 3.357v11.596a3.36 3.36 0 003.357 3.357h11.596a3.36 3.36 0 003.357-3.357V11.702a3.36 3.36 0 00-3.357-3.357zM17.5 23.528a6.035 6.035 0 01-6.028-6.028 6.034 6.034 0 016.028-6.028 6.035 6.035 0 016.028 6.028 6.035 6.035 0 01-6.028 6.028zm6.221-10.81c-.786 0-1.426-.639-1.426-1.425 0-.787.64-1.427 1.426-1.427a1.428 1.428 0 010 2.852zM17.5 14.02a3.485 3.485 0 00-3.481 3.48 3.486 3.486 0 003.48 3.481c1.92 0 3.481-1.562 3.481-3.481a3.484 3.484 0 00-3.48-3.48zm5.798-5.675H11.702a3.36 3.36 0 00-3.357 3.357v11.596a3.36 3.36 0 003.357 3.357h11.596a3.36 3.36 0 003.357-3.357V11.702a3.36 3.36 0 00-3.357-3.357zM17.5 23.528a6.035 6.035 0 01-6.028-6.028 6.034 6.034 0 016.028-6.028 6.035 6.035 0 016.028 6.028 6.035 6.035 0 01-6.028 6.028zm6.221-10.81c-.786 0-1.426-.639-1.426-1.425 0-.787.64-1.427 1.426-1.427a1.428 1.428 0 010 2.852zM17.5 14.02a3.485 3.485 0 00-3.481 3.48 3.486 3.486 0 003.48 3.481c1.92 0 3.481-1.562 3.481-3.481a3.484 3.484 0 00-3.48-3.48zM0 0v35h35V0H0zm29.202 23.298a5.91 5.91 0 01-5.904 5.904H11.702a5.91 5.91 0 01-5.904-5.904V11.702a5.91 5.91 0 015.904-5.904h11.596a5.91 5.91 0 015.904 5.904v11.596zM23.298 8.345H11.702a3.36 3.36 0 00-3.357 3.357v11.596a3.36 3.36 0 003.357 3.357h11.596a3.36 3.36 0 003.357-3.357V11.702a3.36 3.36 0 00-3.357-3.357zM17.5 23.528a6.035 6.035 0 01-6.028-6.028 6.034 6.034 0 016.028-6.028 6.035 6.035 0 016.028 6.028 6.035 6.035 0 01-6.028 6.028zm6.221-10.81c-.786 0-1.426-.639-1.426-1.425 0-.787.64-1.427 1.426-1.427a1.428 1.428 0 010 2.852zM17.5 14.02a3.485 3.485 0 00-3.481 3.48 3.486 3.486 0 003.48 3.481c1.92 0 3.481-1.562 3.481-3.481a3.484 3.484 0 00-3.48-3.48zm0 0a3.485 3.485 0 00-3.481 3.48 3.486 3.486 0 003.48 3.481c1.92 0 3.481-1.562 3.481-3.481a3.484 3.484 0 00-3.48-3.48zm0 0a3.485 3.485 0 00-3.481 3.48 3.486 3.486 0 003.48 3.481c1.92 0 3.481-1.562 3.481-3.481a3.484 3.484 0 00-3.48-3.48zm5.798-5.675H11.702a3.36 3.36 0 00-3.357 3.357v11.596a3.36 3.36 0 003.357 3.357h11.596a3.36 3.36 0 003.357-3.357V11.702a3.36 3.36 0 00-3.357-3.357zM17.5 23.528a6.035 6.035 0 01-6.028-6.028 6.034 6.034 0 016.028-6.028 6.035 6.035 0 016.028 6.028 6.035 6.035 0 01-6.028 6.028zm6.221-10.81c-.786 0-1.426-.639-1.426-1.425 0-.787.64-1.427 1.426-1.427a1.428 1.428 0 010 2.852zM17.5 14.02a3.485 3.485 0 00-3.481 3.48 3.486 3.486 0 003.48 3.481c1.92 0 3.481-1.562 3.481-3.481a3.484 3.484 0 00-3.48-3.48zm0 0a3.485 3.485 0 00-3.481 3.48 3.486 3.486 0 003.48 3.481c1.92 0 3.481-1.562 3.481-3.481a3.484 3.484 0 00-3.48-3.48zm0 0a3.485 3.485 0 00-3.481 3.48 3.486 3.486 0 003.48 3.481c1.92 0 3.481-1.562 3.481-3.481a3.484 3.484 0 00-3.48-3.48zm5.798-5.675H11.702a3.36 3.36 0 00-3.357 3.357v11.596a3.36 3.36 0 003.357 3.357h11.596a3.36 3.36 0 003.357-3.357V11.702a3.36 3.36 0 00-3.357-3.357zM17.5 23.528a6.035 6.035 0 01-6.028-6.028 6.034 6.034 0 016.028-6.028 6.035 6.035 0 016.028 6.028 6.035 6.035 0 01-6.028 6.028zm6.221-10.81c-.786 0-1.426-.639-1.426-1.425 0-.787.64-1.427 1.426-1.427a1.428 1.428 0 010 2.852zM17.5 14.02a3.485 3.485 0 00-3.481 3.48 3.486 3.486 0 003.48 3.481c1.92 0 3.481-1.562 3.481-3.481a3.484 3.484 0 00-3.48-3.48z" fill="#C536A4"/></svg><svg fill="none" viewBox="0 0 16 12" id="product-arrow-right" xmlns="http://www.w3.org/2000/svg"><path d="M15.53 6.53a.75.75 0 000-1.06L10.757.697a.75.75 0 00-1.06 1.06L13.939 6l-4.242 4.243a.75.75 0 001.06 1.06L15.53 6.53zM0 6.75h15v-1.5H0v1.5z" fill="#fff"/></svg><svg fill="none" viewBox="0 0 15 15" id="product-check" xmlns="http://www.w3.org/2000/svg"><path d="M4.246 12.328L.183 8.515a.562.562 0 010-.83l.884-.83c.244-.229.64-.229.884 0l2.736 2.57 5.862-5.503c.244-.23.64-.23.884 0l.884.83c.244.229.244.6 0 .83l-7.188 6.746a.654.654 0 01-.883 0z" fill="#fff"/></svg><svg viewBox="0 0 39 35" id="product-heart" xmlns="http://www.w3.org/2000/svg"><path d="M3.094 3.425C5.113 1.216 7.883 0 10.894 0c2.252 0 4.314.718 6.129 2.134a12.599 12.599 0 012.477 2.61 12.592 12.592 0 012.478-2.61C23.792.718 25.854 0 28.105 0c3.012 0 5.783 1.216 7.801 3.425C37.901 5.608 39 8.59 39 11.823c0 3.327-1.23 6.372-3.868 9.584-2.36 2.874-5.754 5.79-9.683 9.168-1.341 1.154-2.862 2.46-4.441 3.854a2.276 2.276 0 01-3.015 0c-1.58-1.393-3.1-2.7-4.443-3.855-3.929-3.377-7.321-6.293-9.682-9.167C1.228 18.195 0 15.15 0 11.822 0 8.59 1.099 5.608 3.094 3.425z"/></svg><svg fill="none" viewBox="0 0 26 27" id="public" xmlns="http://www.w3.org/2000/svg"><g clip-path="url(#kclip0)" fill="#FF8635"><path d="M22.79.194H3.21a.762.762 0 00-.762.761v24.477c0 .42.34.762.761.762h19.582c.42 0 .761-.341.761-.762V.955a.762.762 0 00-.761-.761zM22.03 24.67H3.97V1.717H22.03V24.67z"/><path d="M15.228 4.846c-.37-.37-.86-.573-1.383-.573a1.95 1.95 0 00-.845.19 1.949 1.949 0 00-.845-.19 1.959 1.959 0 00-1.383 3.34l1.69 1.69a.76.76 0 001.077 0l1.69-1.69a1.959 1.959 0 000-2.767zm-1.077 1.69L13 7.687l-1.151-1.151a.434.434 0 01.612-.613.762.762 0 001.077 0 .43.43 0 01.613 0 .434.434 0 010 .613zM7.827 20.814a.768.768 0 00-.538-.223.765.765 0 00-.762.761.766.766 0 00.762.762c.2 0 .397-.082.538-.223a.767.767 0 00.223-.539c0-.2-.081-.397-.223-.538zM7.827 16.734a.767.767 0 00-.538-.223c-.2 0-.397.081-.539.223a.766.766 0 00-.223.539.766.766 0 00.762.762c.2 0 .397-.082.538-.223a.767.767 0 00.223-.54c0-.2-.081-.396-.223-.538zM7.827 12.655a.767.767 0 00-.538-.223c-.2 0-.397.081-.539.223a.766.766 0 00-.223.539c0 .2.081.396.223.538a.766.766 0 00.539.223c.2 0 .397-.081.538-.223a.768.768 0 00.223-.538c0-.201-.081-.397-.223-.54zM18.711 20.59h-6.527a.762.762 0 000 1.524h6.527a.762.762 0 100-1.523zM18.711 16.511h-6.527a.762.762 0 000 1.524h6.527a.762.762 0 000-1.524zM18.711 12.432h-6.527a.762.762 0 000 1.523h6.527a.762.762 0 000-1.523z"/></g><defs><clipPath id="kclip0"><path fill="#fff" transform="translate(0 .194)" d="M0 0h26v26H0z"/></clipPath></defs></svg><svg fill="none" viewBox="0 0 21 21" id="search-header" xmlns="http://www.w3.org/2000/svg"><path d="M14.112 12.861c2.45-3.39 1.63-8.084-1.828-10.485C8.826-.024 4.038.78 1.59 4.17-.858 7.56-.04 12.253 3.419 14.653a7.8 7.8 0 008.334.338l5.657 5.512c.61.63 1.626.656 2.27.057a1.552 1.552 0 000-2.282l-5.568-5.417zm-6.265.514c-2.733 0-4.948-2.17-4.95-4.849 0-2.679 2.213-4.85 4.946-4.852 2.729 0 4.943 2.166 4.948 4.841.005 2.68-2.207 4.855-4.941 4.86h-.003z" fill="#B2B2B2"/></svg><svg fill="none" viewBox="0 0 52 52" id="shopping-cart" xmlns="http://www.w3.org/2000/svg"><path d="M16.398 33.05h27.649c3.135 0 5.692-2.376 5.692-5.29V16.95v-.038-.077c0-.02 0-.038-.01-.057 0-.02-.01-.048-.01-.067 0-.02-.01-.039-.01-.058-.011-.02-.011-.038-.022-.067-.01-.02-.01-.038-.02-.058-.01-.019-.01-.038-.02-.057-.011-.02-.021-.038-.032-.067-.01-.02-.02-.038-.03-.048l-.032-.058c-.01-.019-.02-.028-.03-.047-.01-.02-.031-.039-.042-.058-.01-.02-.02-.029-.041-.048-.01-.02-.03-.029-.041-.048-.01-.019-.031-.029-.041-.048-.01-.019-.031-.029-.042-.038l-.051-.048c-.02-.01-.031-.029-.052-.038-.02-.01-.041-.03-.062-.039-.02-.01-.03-.019-.051-.028-.02-.01-.042-.02-.062-.039l-.062-.029-.062-.028-.062-.029c-.02-.01-.041-.01-.062-.02a.201.201 0 00-.072-.018c-.02 0-.041-.01-.051-.01-.031-.01-.052-.01-.083-.01-.01 0-.02-.01-.041-.01L13.5 11.172V6.63c0-.048 0-.096-.01-.135 0-.01 0-.019-.011-.038 0-.029-.01-.057-.01-.086-.01-.029-.01-.048-.021-.077 0-.019-.01-.029-.01-.048l-.031-.086c0-.01-.01-.029-.01-.038a.28.28 0 00-.042-.077c-.01-.01-.01-.029-.02-.038a.2.2 0 00-.042-.058c-.01-.019-.02-.029-.03-.048-.011-.019-.021-.028-.032-.048-.01-.019-.03-.038-.04-.057a7.91 7.91 0 01-.094-.086l-.03-.03a.438.438 0 00-.073-.057c-.01-.01-.03-.019-.041-.028-.02-.02-.041-.03-.062-.048a.965.965 0 00-.082-.048c-.01-.01-.021-.01-.031-.02-.042-.019-.093-.038-.134-.057l-7.6-2.97c-.712-.279-1.527.028-1.826.69-.3.66.03 1.418.742 1.696l6.745 2.645v28.347c0 2.684 2.165 4.907 4.96 5.243a4.953 4.953 0 00-.804 2.683c0 2.885 2.526 5.223 5.62 5.223 3.094 0 5.62-2.348 5.62-5.223 0-.958-.278-1.869-.773-2.635h12.52a4.876 4.876 0 00-.774 2.635c0 2.885 2.527 5.223 5.62 5.223 3.094 0 5.62-2.348 5.62-5.223s-2.526-5.223-5.62-5.223H16.399c-1.608 0-2.908-1.217-2.908-2.702v-3.508c.846.46 1.846.728 2.908.728zm6.93 10.696c0 1.456-1.278 2.635-2.835 2.635-1.558 0-2.836-1.188-2.836-2.635 0-1.448 1.278-2.636 2.835-2.636 1.558 0 2.836 1.179 2.836 2.636zm22.214 0c0 1.456-1.279 2.635-2.836 2.635s-2.836-1.188-2.836-2.635c0-1.448 1.279-2.636 2.836-2.636s2.836 1.179 2.836 2.636zm-1.495-13.283H16.398c-1.608 0-2.908-1.217-2.908-2.703V13.778l33.465 4.284v9.689c0 1.504-1.31 2.712-2.908 2.712z" fill="#2F2F2F"/></svg><svg fill="none" viewBox="0 0 50 50" id="sweets" xmlns="http://www.w3.org/2000/svg"><path d="M46.671 23.1l-12.26-2.934.595-.595a1.05 1.05 0 000-1.483l-2.603-2.603a1.05 1.05 0 00-1.483 0l-2.603 2.603a1.041 1.041 0 00-.288.55l-4.148-.992-2.16-2.161a1.05 1.05 0 00-1.484 0l-2.603 2.603a1.05 1.05 0 000 1.483l2.593 2.593-1.263 5.276-1.33 1.33a1.042 1.042 0 00-.307.742c0 .28.11.544.307.742l.53.53-2.752 11.503c-.104.435-.033.885.202 1.267.234.382.603.65 1.038.754l23.593 5.645a1.666 1.666 0 001.267-.202c.382-.234.65-.602.753-1.038l5.646-23.593a1.678 1.678 0 00-1.24-2.02zm-15.01-6.265l1.995 1.994-.932.933-3.146-.753a.74.74 0 00-.008-.082l2.092-2.092zm-12.677 1.994l1.995-1.994.826.826c-.363.225-.64.587-.747 1.033l-.427 1.783-1.647-1.648zm27.49 5.947L40.827 48.37a.194.194 0 01-.09.122.194.194 0 01-.149.024L16.996 42.87a.194.194 0 01-.122-.09.194.194 0 01-.024-.149l5.646-23.592a.199.199 0 01.239-.147l23.592 5.646a.198.198 0 01.146.238z" fill="#FF8635"/><path d="M23.61 26.98l3.58.857a1.05 1.05 0 001.264-.776l.857-3.58a1.05 1.05 0 00-.776-1.264l-3.58-.856a1.05 1.05 0 00-1.263.776l-.857 3.58c-.065.272-.02.553.126.792.147.239.377.406.65.472zm1.42-4.08l2.743.655-.657 2.744-2.743-.657.657-2.743zM30.957 28.738l3.58.857a1.051 1.051 0 001.264-.776l.857-3.58a1.05 1.05 0 00-.776-1.264l-3.58-.856a1.05 1.05 0 00-1.264.776l-.857 3.58a1.05 1.05 0 00.776 1.263zm1.42-4.081l2.743.657-.657 2.743-2.743-.656.656-2.744zM43.229 25.733l-3.58-.856a1.042 1.042 0 00-.793.126 1.041 1.041 0 00-.47.65l-.858 3.58a1.05 1.05 0 00.776 1.264l3.58.856a1.042 1.042 0 00.793-.126c.239-.147.406-.378.47-.65l.858-3.58a1.05 1.05 0 00-.776-1.264zm-1.42 4.082l-2.743-.657.657-2.743 2.744.657-.657 2.743zM27.553 30.828c.065-.272.02-.554-.126-.793a1.039 1.039 0 00-.65-.47l-3.58-.858a1.05 1.05 0 00-1.263.776l-.857 3.58c-.065.273-.02.554.126.793.147.239.377.406.65.47l3.58.858a1.049 1.049 0 001.263-.776l.857-3.58zm-2.194 2.818l-2.744-.657.657-2.743 2.743.656-.656 2.744zM34.9 32.586c.065-.272.02-.554-.126-.792a1.042 1.042 0 00-.65-.472l-3.58-.856a1.05 1.05 0 00-1.264.775l-.856 3.58c-.066.273-.02.554.126.793s.377.406.65.471l3.58.857a1.043 1.043 0 00.793-.126c.237-.147.405-.378.47-.65l.857-3.58zm-2.195 2.817l-2.743-.656.656-2.743 2.744.656-.657 2.743zM41.47 33.08l-3.58-.856a1.05 1.05 0 00-1.263.775l-.857 3.58c-.065.273-.02.554.126.793.147.239.378.406.65.471l3.58.857a1.042 1.042 0 00.792-.126c.24-.147.407-.377.472-.65l.856-3.58a1.05 1.05 0 00-.775-1.264zm-1.418 4.082l-2.743-.657.656-2.743 2.743.657-.656 2.743zM25.019 36.91l-3.58-.856a1.05 1.05 0 00-1.264.776l-.856 3.58a1.05 1.05 0 00.776 1.264l3.58.856a1.05 1.05 0 001.264-.776l.856-3.58a1.05 1.05 0 00-.776-1.263zM23.6 40.993l-2.743-.656.656-2.744 2.744.657-.657 2.743zM32.366 38.669l-3.58-.857a1.044 1.044 0 00-.793.126 1.041 1.041 0 00-.47.65l-.858 3.58a1.05 1.05 0 00.776 1.264l3.58.856a1.05 1.05 0 001.264-.776l.857-3.58a1.044 1.044 0 00-.776-1.264zm-1.419 4.081l-2.743-.656.656-2.744 2.744.657-.657 2.743zM39.712 40.427l-3.58-.857a1.042 1.042 0 00-.792.127 1.04 1.04 0 00-.471.65l-.857 3.579c-.065.272-.02.554.126.792.147.24.377.407.65.472l3.58.856a1.048 1.048 0 001.264-.776l.856-3.58c.065-.272.02-.553-.126-.792a1.04 1.04 0 00-.65-.471zm-1.418 4.081l-2.744-.656.657-2.744 2.743.657-.656 2.743zM20.979 11.797c.268 0 .537-.102.741-.306l2.603-2.604a1.05 1.05 0 000-1.482L21.72 4.802a1.05 1.05 0 00-1.483 0l-2.603 2.603a1.042 1.042 0 00-.307.741c0 .28.11.544.307.742l2.603 2.603c.204.204.473.306.742.306zm0-5.645l1.994 1.994-1.994 1.995-1.995-1.995 1.994-1.994zM25.578 16.832c.199.198.462.307.742.307.28 0 .544-.11.742-.307l2.603-2.603c.198-.198.307-.461.307-.741 0-.28-.11-.544-.307-.742l-2.603-2.602a1.04 1.04 0 00-.742-.308c-.28 0-.543.11-.741.307l-2.603 2.603a1.042 1.042 0 00-.307.742c0 .28.109.543.307.741l2.602 2.603zm.742-5.339l1.995 1.995-1.995 1.994-1.994-1.994 1.994-1.995zM19.289 13.488c0-.28-.11-.544-.307-.742l-2.604-2.603a1.05 1.05 0 00-1.483 0l-2.602 2.603a1.05 1.05 0 000 1.483l2.602 2.603a1.048 1.048 0 001.484 0l2.603-2.603c.198-.198.307-.461.307-.741zm-3.652 1.994l-1.995-1.994 1.995-1.995 1.994 1.995-1.994 1.994zM13.947 18.83c0-.28-.11-.544-.307-.742l-2.603-2.603a1.042 1.042 0 00-.742-.307c-.28 0-.543.109-.741.307L6.95 18.088a1.042 1.042 0 00-.307.741c0 .28.11.544.307.742l2.603 2.603c.198.198.461.307.742.307.28 0 .543-.11.741-.307l2.603-2.603c.198-.198.307-.462.307-.742zm-3.651 1.994L8.3 18.829l1.995-1.994 1.994 1.994-1.994 1.995zM12.293 24.912l2.603 2.603a1.047 1.047 0 001.483 0l2.603-2.603c.198-.198.307-.461.307-.741 0-.28-.11-.543-.307-.741l-2.603-2.604a1.05 1.05 0 00-1.483 0l-2.604 2.604a1.05 1.05 0 000 1.482zm3.344-2.736l1.994 1.995-1.994 1.994-1.995-1.994 1.995-1.995z" fill="#FF8635"/><path d="M16.138 32.482a.74.74 0 000-1.046L3.685 18.97a.198.198 0 010-.28L20.84 1.536a.198.198 0 01.28 0l17.153 17.153a.196.196 0 01.058.14.74.74 0 101.479 0c0-.447-.175-.868-.492-1.185L22.164.49a1.68 1.68 0 00-2.371 0L2.639 17.644c-.316.316-.49.738-.49 1.185 0 .448.174.87.49 1.186L15.092 32.48a.738.738 0 001.046 0z" fill="#FF8635"/></svg><svg fill="none" viewBox="0 0 15 9" id="t-arrow-down" xmlns="http://www.w3.org/2000/svg"><path d="M7.5 7.172L.725.484a.427.427 0 00-.6 0 .414.414 0 000 .593l7.076 6.986a.427.427 0 00.6 0l7.073-6.986a.406.406 0 000-.59.427.427 0 00-.6 0L7.5 7.173z" fill="#4A4A4A"/></svg><svg fill="none" viewBox="0 0 36 35" id="telegram" xmlns="http://www.w3.org/2000/svg"><g clip-path="url(#pclip0)"><path d="M35.069 0h-35v35h35V0z" fill="#61A8DE"/><path d="M27.628 7.726l-23.405 9.12c-.758.296-.712 1.384.068 1.614l5.948 1.757 2.22 7.043a1.021 1.021 0 001.703.407l3.075-3.14 6.034 4.43c.738.541 1.79.139 1.977-.758l3.996-19.105a1.204 1.204 0 00-1.616-1.368zm-2.934 4.24L13.822 21.58a.584.584 0 00-.193.372l-.419 3.72c-.013.122-.183.138-.22.021l-1.722-5.549a.584.584 0 01.25-.67l12.838-7.961c.296-.184.598.223.338.453z" fill="#fff"/></g><defs><clipPath id="pclip0"><rect x=".069" width="35" height="35" rx="5" fill="#fff"/></clipPath></defs></svg><svg fill="none" viewBox="0 0 34 35" id="viber" xmlns="http://www.w3.org/2000/svg"><g clip-path="url(#qclip0)"><path d="M33.931 0H.138v35H33.93V0z" fill="#7D3DAF"/><path d="M27.722 11.282l-.007-.028c-.54-2.26-2.973-4.685-5.208-5.19l-.025-.005a27.963 27.963 0 00-10.895 0l-.026.005c-2.234.505-4.667 2.93-5.208 5.19l-.006.028a22.855 22.855 0 000 9.514l.006.027c.518 2.164 2.77 4.478 4.921 5.115v2.523c0 .913 1.075 1.361 1.686.702l2.468-2.657a28.069 28.069 0 007.054-.487l.025-.005c2.235-.505 4.668-2.93 5.208-5.19l.007-.028a22.858 22.858 0 000-9.514zm-1.953 9.056c-.36 1.475-2.208 3.308-3.677 3.647a26.07 26.07 0 01-5.794.485.135.135 0 00-.103.042l-1.802 1.916-1.917 2.038c-.14.151-.386.048-.386-.16v-4.18a.143.143 0 00-.114-.142c-1.468-.338-3.315-2.171-3.677-3.646-.6-2.853-.6-5.745 0-8.598.362-1.475 2.209-3.308 3.677-3.647a26.043 26.043 0 0110.116 0c1.47.339 3.317 2.172 3.677 3.647a20.719 20.719 0 010 8.598z" fill="#fff"/><path d="M20.228 22.267c-.225-.07-.44-.118-.64-.204-2.07-.89-3.975-2.037-5.485-3.796-.858-1-1.53-2.13-2.097-3.325-.27-.567-.496-1.156-.728-1.74-.21-.534.1-1.086.427-1.488a3.385 3.385 0 011.13-.879c.334-.166.663-.07.907.223.527.634 1.011 1.3 1.403 2.034.241.452.175 1.004-.262 1.311-.106.075-.203.163-.302.247a1.01 1.01 0 00-.228.25.702.702 0 00-.043.598c.538 1.533 1.446 2.726 2.937 3.368.238.103.478.222.752.19.46-.056.61-.58.932-.852.315-.267.718-.27 1.057-.048.34.222.669.461.996.703.321.237.64.469.937.739.285.26.383.6.223.953-.294.646-.721 1.183-1.337 1.526-.175.096-.382.128-.579.19-.225-.07.197-.062 0 0zM17.04 10.097c2.708.079 4.932 1.94 5.408 4.712.081.473.11.955.146 1.435.016.202-.095.393-.305.396-.217.002-.314-.186-.329-.387-.027-.4-.047-.8-.1-1.196-.28-2.089-1.889-3.817-3.896-4.188-.302-.056-.611-.07-.917-.104-.194-.02-.447-.033-.49-.282-.036-.209.134-.375.326-.386.052-.003.105 0 .157 0 2.708.079-.052 0 0 0z" fill="#fff"/><path d="M21.155 15.622c-.005.035-.007.117-.027.194-.072.282-.484.317-.579.033a.874.874 0 01-.032-.27c-.001-.595-.126-1.188-.415-1.705a3.109 3.109 0 00-1.284-1.248 3.6 3.6 0 00-1.024-.325c-.154-.027-.31-.043-.465-.065-.188-.027-.288-.151-.28-.343.01-.18.136-.309.325-.298.621.037 1.222.176 1.774.479 1.123.616 1.765 1.589 1.953 2.887.008.06.021.117.026.176.01.146.017.292.028.485-.005.035-.01-.193 0 0z" fill="#fff"/><path d="M19.47 15.554c-.226.004-.347-.126-.37-.341-.017-.15-.03-.302-.064-.448a1.266 1.266 0 00-.449-.73 1.152 1.152 0 00-.366-.183c-.166-.05-.338-.036-.504-.078-.18-.045-.28-.196-.252-.371a.328.328 0 01.344-.271c1.05.078 1.8.64 1.907 1.92.007.09.016.186-.003.272-.033.148-.139.223-.242.23-.227.004.103-.008 0 0z" fill="#fff"/></g><defs><clipPath id="qclip0"><rect x=".138" width="33.793" height="35" rx="5" fill="#fff"/></clipPath></defs></svg><svg fill="none" viewBox="0 0 36 35" id="whatsapp" xmlns="http://www.w3.org/2000/svg"><g clip-path="url(#rclip0)"><path d="M35.069 0h-35v35h35V0z" fill="#1BD741"/><path d="M5.33 29.753l1.714-6.089a12.186 12.186 0 01-1.683-6.193c0-6.74 5.483-12.224 12.224-12.224 6.74 0 12.224 5.484 12.224 12.224s-5.484 12.224-12.224 12.224c-2.1 0-4.157-.538-5.976-1.558l-6.28 1.616zm6.6-3.84l.374.228a10.13 10.13 0 005.28 1.48c5.598 0 10.151-4.553 10.151-10.15s-4.553-10.15-10.15-10.15-10.15 4.553-10.15 10.15c0 1.95.554 3.844 1.602 5.477l.252.392-.987 3.507 3.628-.934z" fill="#fff"/><path d="M14.15 11.782l-.792-.044a.959.959 0 00-.682.234c-.385.334-1 .98-1.188 1.82-.282 1.255.153 2.79 1.28 4.327 1.126 1.536 3.225 3.993 6.937 5.043 1.196.338 2.137.11 2.863-.354a2.56 2.56 0 001.114-1.626l.127-.591a.411.411 0 00-.23-.46l-2.68-1.235a.411.411 0 00-.498.122l-1.052 1.364a.301.301 0 01-.339.101c-.72-.253-3.135-1.264-4.46-3.816a.304.304 0 01.04-.34l1.005-1.163a.41.41 0 00.067-.43l-1.156-2.704a.411.411 0 00-.355-.248z" fill="#fff"/></g><defs><clipPath id="rclip0"><rect x=".069" width="35" height="35" rx="5" fill="#fff"/></clipPath></defs></svg></svg>