<svg width="59" height="60" viewBox="0 0 59 60" fill="none" xmlns="http://www.w3.org/2000/svg">
<g clip-path="url(#clip0)">
<path d="M51.2921 15.414H15.3592C12.0296 15.414 9.30758 12.6903 9.30758 9.33147C9.30758 5.98484 12.0174 3.24891 15.3592 3.24891H51.3042C52.2035 3.24891 52.9204 2.51608 52.9204 1.62446C52.9204 0.720624 52.1913 0 51.3042 0H15.3592C10.2433 0 6.0752 4.18939 6.0752 9.33147V49.9673C6.0752 55.1094 10.2433 59.2988 15.3592 59.2988H51.3042C52.2035 59.2988 52.9204 58.5659 52.9204 57.6743V17.0385C52.9083 16.1469 52.1913 15.414 51.2921 15.414ZM49.6759 56.0499H15.3592C12.0296 56.0499 9.30758 53.3262 9.30758 49.9673V16.4156C10.9359 17.8202 13.0503 18.6751 15.3592 18.6751H49.6759V56.0499Z" fill="#FF934B"/>
<path d="M15.8681 7.85358C14.9689 7.85358 14.252 8.58641 14.252 9.47803C14.252 10.3697 14.9811 11.1025 15.8681 11.1025H46.2234C47.1226 11.1025 47.8396 10.3697 47.8396 9.47803C47.8396 8.58641 47.1105 7.85358 46.2234 7.85358H15.8681Z" fill="#FF934B"/>
<path d="M21.5576 48.9414C21.7398 49.0025 21.9221 49.0391 22.1044 49.0391C22.7727 49.0391 23.3925 48.6238 23.6234 47.9643L25.592 42.4313H33.1747C33.2355 42.4313 33.3084 42.4313 33.3691 42.4191L35.3377 47.9643C35.5686 48.6238 36.2005 49.0391 36.8567 49.0391C37.039 49.0391 37.2213 49.0025 37.4035 48.9414C38.242 48.636 38.6795 47.7078 38.3757 46.865L31.0117 26.1135C30.9995 26.0646 30.9752 26.0158 30.9509 25.9669C30.9388 25.9425 30.9266 25.918 30.9145 25.8936C30.9023 25.8692 30.8902 25.8448 30.878 25.8203C30.8659 25.7959 30.8416 25.7715 30.8294 25.7348C30.8173 25.7226 30.8051 25.6982 30.7929 25.686C30.7808 25.6616 30.7565 25.6371 30.7322 25.6127C30.72 25.6005 30.7079 25.5761 30.6836 25.5638C30.6714 25.5394 30.6471 25.5272 30.6228 25.5028C30.5985 25.4783 30.5864 25.4661 30.5621 25.4417C30.5499 25.4295 30.5256 25.4173 30.5135 25.3928C30.4892 25.3684 30.4648 25.3562 30.4405 25.3318C30.4284 25.3196 30.4041 25.3073 30.3919 25.2951C30.3676 25.2829 30.3433 25.2585 30.319 25.2463C30.2947 25.2341 30.2704 25.2218 30.2461 25.2096C30.2218 25.1974 30.1975 25.1852 30.1732 25.173C30.1246 25.1486 30.076 25.1241 30.0274 25.1119H30.0152C29.9666 25.0997 29.918 25.0875 29.8694 25.0753C29.8451 25.0753 29.833 25.0631 29.8087 25.0631C29.7722 25.0509 29.7479 25.0509 29.7114 25.0386C29.6871 25.0386 29.6628 25.0386 29.6385 25.0264C29.6142 25.0264 29.5778 25.0142 29.5535 25.0142C29.5292 25.0142 29.5049 25.0142 29.4806 25.0142C29.4562 25.0142 29.4319 25.0142 29.3955 25.0142C29.3712 25.0142 29.3347 25.0142 29.3104 25.0264C29.2861 25.0264 29.2618 25.0264 29.2375 25.0386C29.2011 25.0386 29.1768 25.0509 29.1403 25.0631C29.116 25.0631 29.1038 25.0753 29.0795 25.0753C29.0309 25.0875 28.9823 25.0997 28.9459 25.1119H28.9337C28.8851 25.1241 28.8365 25.1486 28.7879 25.173C28.7636 25.1852 28.7393 25.1974 28.715 25.2096C28.6907 25.2218 28.6664 25.2341 28.6421 25.2463C28.6178 25.2585 28.5935 25.2829 28.557 25.2951C28.5449 25.3073 28.5206 25.3196 28.5084 25.3318C28.4841 25.3562 28.4598 25.3684 28.4355 25.3928C28.4233 25.4051 28.399 25.4173 28.3869 25.4417C28.3626 25.4661 28.3504 25.4783 28.3261 25.5028C28.3018 25.5272 28.2897 25.5394 28.2654 25.5638C28.2532 25.5761 28.2411 25.6005 28.2168 25.6127C28.1925 25.6371 28.1803 25.6616 28.156 25.686C28.1439 25.6982 28.1317 25.7226 28.1195 25.7348C28.1074 25.7593 28.0831 25.7837 28.0709 25.8081C28.0588 25.8325 28.0466 25.857 28.0345 25.8814C28.0223 25.9058 28.0102 25.9303 27.998 25.9547C27.9737 26.0035 27.9494 26.0524 27.9373 26.1013L20.549 46.8528C20.2816 47.7078 20.7191 48.636 21.5576 48.9414ZM29.4927 31.4876L32.2269 39.1824H26.7464L29.4927 31.4876Z" fill="#FF934B"/>
</g>
<defs>
<clipPath id="clip0">
<rect width="58.9971" height="59.2988" fill="white"/>
</clipPath>
</defs>
</svg>
