<svg width="50" height="50" viewBox="0 0 50 50" fill="none" xmlns="http://www.w3.org/2000/svg">
<path d="M25.0477 26.9794C20.4346 26.9794 16.6813 30.7327 16.6813 35.3458C16.6813 39.9589 20.4346 43.7121 25.0477 43.7121C29.6612 43.7121 33.4141 39.9589 33.4141 35.3458C33.4141 30.7327 29.6612 26.9794 25.0477 26.9794ZM25.0477 42.2473C21.2421 42.2473 18.1461 39.1513 18.1461 35.3458C18.1461 31.5402 21.2421 28.4442 25.0477 28.4442C28.8536 28.4442 31.9496 31.5402 31.9496 35.3458C31.9496 39.1513 28.8536 42.2473 25.0477 42.2473Z" fill="#FF8635"/>
<path d="M42.5743 16.3833H42.5171L44.1887 8.29313C44.3119 7.69728 44.1898 7.08426 43.8538 6.61162C43.5391 6.16835 43.0706 5.8853 42.5354 5.81435L39.7148 5.44089C39.5027 5.41266 39.2914 5.42105 39.0869 5.45958L39.1117 5.24939C39.1834 4.63942 39.008 4.03098 38.6299 3.58085C38.2759 3.15894 37.7815 2.90946 37.2376 2.87856L35.149 2.75916C35.2177 2.16598 35.0582 1.56936 34.7057 1.11312C34.3666 0.674435 33.8833 0.399396 33.345 0.339124L30.4348 0.0125865C29.8969 -0.0480671 29.3625 0.11215 28.9299 0.463101C28.4637 0.841137 28.1624 1.41181 28.1025 2.02865L27.8378 4.77294C27.7676 4.6688 27.6886 4.57076 27.6005 4.48073C27.2137 4.08515 26.7025 3.86733 26.1608 3.86733H23.2719C22.8878 3.86733 22.5205 3.97872 22.2008 4.18357L21.9929 2.02865C21.9334 1.41181 21.6316 0.841137 21.1655 0.463101C20.7333 0.11215 20.1992 -0.0476855 19.6606 0.0125865L16.7503 0.339124C16.2121 0.399396 15.7288 0.674435 15.3896 1.11312C15.0372 1.56936 14.8777 2.16598 14.9464 2.75916L12.8578 2.87856C12.3142 2.90946 11.8195 3.15894 11.4655 3.58085C11.0874 4.03098 10.9119 4.63942 10.9837 5.24939L11.0085 5.45996C10.804 5.42143 10.593 5.41266 10.3806 5.44089L7.55997 5.81435C7.02477 5.8853 6.5567 6.16835 6.24161 6.61162C5.90554 7.08426 5.78347 7.69728 5.90668 8.29313L7.57828 16.3833H7.52106C7.03011 16.3833 6.567 16.5985 6.25038 16.9742C5.93376 17.35 5.80025 17.8432 5.88379 18.3269L11.1061 48.6209C11.2442 49.42 11.9328 49.9999 12.7438 49.9999H37.352C38.163 49.9999 38.8516 49.42 38.9893 48.6209L44.212 18.3269C44.2955 17.8432 44.1616 17.35 43.8454 16.9742C43.5288 16.5985 43.0656 16.3833 42.5743 16.3833ZM38.8733 7.2788C39.0125 7.01941 39.2742 6.85919 39.5229 6.89314L42.3435 7.26622C42.5068 7.28796 42.6056 7.38333 42.6598 7.46C42.7609 7.60229 42.7956 7.79798 42.7544 7.99673L41.0217 16.3829H39.9509L40.6639 10.7517C40.736 10.1845 40.5735 9.61568 40.2184 9.19149C39.8727 8.77798 39.3837 8.53498 38.842 8.50713L38.7291 8.50141L38.8733 7.2788ZM37.8742 9.92429L38.7672 9.97007C38.9339 9.97884 39.0377 10.0628 39.0953 10.1314C39.1911 10.2459 39.2319 10.4007 39.2109 10.5674L38.4743 16.3833H35.0525L35.4485 14.0709C35.5305 13.5921 35.4343 13.1122 35.1818 12.7033L35.3561 10.4454C35.3729 10.226 35.4939 10.033 35.6613 9.92315C35.7616 9.85753 35.8788 9.82168 36.0001 9.82854L37.8731 9.92429H37.8742ZM34.2377 4.17594C34.2472 4.17632 34.2568 4.17556 34.2667 4.17632H34.267L37.1544 4.34073C37.3291 4.35103 37.4435 4.44525 37.5084 4.52231C37.6278 4.66498 37.682 4.86754 37.6572 5.07811L37.4325 6.9908C37.4325 6.9908 37.4321 6.99118 37.4321 6.99156L37.2635 8.42626L36.0748 8.36561C34.9602 8.30839 33.9836 9.19073 33.8955 10.3325L33.7833 11.7832L33.0982 11.6752L33.5682 4.89997C33.5957 4.4979 33.9008 4.17327 34.2377 4.17594ZM34.0046 13.8237L33.5537 16.4577C33.0761 16.6057 32.6847 16.9651 32.4966 17.4549C31.9244 18.9449 30.928 20.2182 29.615 21.1376C29.4743 21.236 29.3308 21.3283 29.1851 21.4168L30.3627 13.2496C30.3822 13.1134 30.4539 12.9936 30.5645 12.9123C30.6751 12.8303 30.8106 12.7975 30.9464 12.8189L32.1957 13.0157C32.196 13.0157 32.1968 13.0157 32.1976 13.0161L33.5815 13.2343C33.7174 13.2557 33.8364 13.3289 33.9165 13.4407C33.9966 13.5524 34.0279 13.6882 34.0046 13.8237ZM27.9259 19.1146L29.5605 2.16941C29.583 1.94053 29.689 1.73339 29.8527 1.60064C29.9412 1.52893 30.0865 1.44729 30.2715 1.46827L33.1821 1.79443C33.3626 1.81465 33.4801 1.92222 33.5465 2.00843C33.6712 2.16979 33.7242 2.39143 33.6914 2.61649L33.6659 2.79273C33.6536 2.79655 33.6418 2.80112 33.6296 2.80494C33.6144 2.8099 33.5991 2.81524 33.5842 2.82058C33.5384 2.83622 33.493 2.85338 33.4488 2.87246C33.4374 2.87704 33.4259 2.882 33.4145 2.88734C33.3279 2.92586 33.2443 2.97011 33.1638 3.02009C33.1566 3.02428 33.1497 3.02886 33.1425 3.03344C33.0925 3.06548 33.0433 3.09943 32.996 3.13567C32.9918 3.13872 32.9876 3.14139 32.9834 3.14483C32.9578 3.16428 32.9331 3.1845 32.9086 3.2051C32.9033 3.20968 32.898 3.21425 32.8926 3.21883C32.8507 3.25507 32.8102 3.29246 32.7709 3.33175C32.761 3.34167 32.7515 3.3512 32.7416 3.3615C32.7217 3.3821 32.7015 3.40308 32.6824 3.42483C32.6614 3.44848 32.6408 3.47251 32.621 3.49692C32.6023 3.51981 32.5844 3.5427 32.5665 3.56597C32.5531 3.5839 32.5401 3.60221 32.5268 3.62052C32.51 3.64417 32.4932 3.66858 32.4768 3.69338C32.4585 3.72161 32.4406 3.75022 32.4234 3.77921C32.4127 3.79714 32.4024 3.81507 32.3925 3.83338C32.3742 3.86618 32.3566 3.89937 32.3399 3.93332C32.3322 3.94934 32.3242 3.96575 32.317 3.98215C32.301 4.01648 32.2857 4.05158 32.2712 4.08706C32.2655 4.10155 32.2598 4.11567 32.254 4.13016C32.2372 4.17441 32.2216 4.21942 32.2071 4.26482C32.2037 4.27588 32.2006 4.28733 32.1976 4.29877C32.185 4.34035 32.1739 4.38269 32.1636 4.4258C32.1617 4.43495 32.159 4.44411 32.1571 4.45365C32.1461 4.50324 32.1369 4.55359 32.1289 4.60433C32.1274 4.61577 32.1255 4.6276 32.124 4.63904C32.1167 4.69168 32.1106 4.74509 32.1068 4.79888L31.646 11.4464L31.1741 11.3723C30.6484 11.2888 30.1228 11.4177 29.6948 11.7336C29.2664 12.0498 28.9887 12.5141 28.9127 13.0409L27.9053 20.0305L27.9259 19.1146ZM22.8813 5.50421C22.9576 5.42563 23.0873 5.33217 23.2719 5.33217H26.1608C26.3454 5.33217 26.4759 5.42601 26.553 5.50497C26.688 5.64307 26.7628 5.84219 26.7582 6.05124L26.4698 18.7198L26.1841 13.2473C26.1543 12.6766 25.9155 12.1475 25.5119 11.7572C25.0935 11.3529 24.5529 11.1465 23.9876 11.1767L22.8115 11.2388L22.7867 10.2775L22.6788 6.04933C22.6734 5.84029 22.7474 5.64154 22.8813 5.50421ZM24.065 12.6392C24.2718 12.6297 24.4228 12.7418 24.4938 12.8105C24.6304 12.9421 24.7112 13.1244 24.7215 13.3236L25.2041 22.5711C25.1522 22.5719 25.0999 22.5738 25.0477 22.5738C23.8117 22.5738 22.6128 22.2934 21.5237 21.7555L20.6917 13.5002C20.6715 13.3011 20.7272 13.1084 20.8443 12.9718C20.911 12.8944 21.0274 12.7998 21.2044 12.7903L24.065 12.6392ZM16.5489 2.00843C16.6157 1.92184 16.7332 1.81465 16.9136 1.79443L19.8238 1.46827C20.0096 1.44729 20.1542 1.52893 20.2431 1.60064C20.4063 1.73339 20.5128 1.94053 20.5349 2.16941L21.323 10.3405L21.3482 11.3163L21.1269 11.3277C20.5849 11.3567 20.0897 11.602 19.7323 12.0186C19.3558 12.458 19.1742 13.0512 19.2341 13.647L19.6369 17.6433L18.7283 15.4659L17.9886 4.79888C17.9848 4.74509 17.9787 4.69206 17.9714 4.63942C17.9699 4.6276 17.968 4.61615 17.9665 4.60433C17.9585 4.55359 17.9493 4.50324 17.9382 4.45327C17.9363 4.44487 17.934 4.4361 17.9321 4.42771C17.9218 4.38346 17.9104 4.34035 17.8978 4.29724C17.8947 4.28733 17.8917 4.27665 17.8886 4.26673C17.8741 4.21981 17.8581 4.17403 17.8406 4.12864C17.836 4.11643 17.831 4.10422 17.8261 4.09201C17.8101 4.05196 17.7929 4.01267 17.775 3.97414C17.7715 3.96651 17.7685 3.95888 17.7647 3.95202C17.7444 3.90929 17.7223 3.86809 17.6994 3.82766C17.6922 3.81431 17.6846 3.80095 17.6769 3.7876C17.6537 3.74831 17.6296 3.7094 17.6045 3.67202C17.5976 3.66172 17.5903 3.6518 17.5831 3.6415C17.5621 3.61098 17.5404 3.58123 17.5179 3.55224C17.5087 3.54003 17.4992 3.52782 17.49 3.516C17.4622 3.48128 17.4336 3.44771 17.4038 3.41491C17.3939 3.40384 17.3836 3.39316 17.3733 3.3821C17.3473 3.35464 17.3214 3.32831 17.2943 3.30276C17.2863 3.29474 17.2783 3.28673 17.2699 3.27872C17.2367 3.24782 17.2028 3.21845 17.1677 3.18946C17.157 3.18069 17.1463 3.17229 17.1352 3.16352C17.099 3.13453 17.0616 3.10668 17.0239 3.07998C17.0189 3.07693 17.0139 3.07387 17.0094 3.07082C16.9724 3.04565 16.9346 3.02161 16.8961 2.99911C16.8881 2.99415 16.88 2.98957 16.872 2.98499C16.8297 2.9602 16.7862 2.93731 16.7419 2.91595C16.737 2.91328 16.7316 2.91099 16.7267 2.9087C16.6805 2.88695 16.634 2.86635 16.5863 2.84804C16.5863 2.84766 16.5859 2.84766 16.5855 2.84766C16.5363 2.82859 16.486 2.81142 16.4349 2.79616C16.433 2.79578 16.4314 2.79502 16.4299 2.79426L16.404 2.61649C16.3715 2.39143 16.4242 2.16979 16.5489 2.00843ZM12.5874 4.52231C12.6522 4.44525 12.7663 4.35065 12.9414 4.34111L15.8302 4.17594H15.8321C15.8356 4.17594 15.8394 4.17632 15.8428 4.17594C16.1861 4.16564 16.4993 4.49179 16.5276 4.89997L16.9678 11.2468L16.6042 10.3756C16.3841 9.84876 15.9813 9.43067 15.4694 9.19912C15.406 9.17013 15.3416 9.14533 15.2767 9.12282C15.2729 9.12168 15.2691 9.12015 15.2653 9.11863C15.2027 9.09765 15.1402 9.08048 15.0768 9.06522C15.0707 9.06408 15.0642 9.06217 15.0581 9.06065C14.9963 9.04653 14.9345 9.03623 14.8724 9.02784C14.8647 9.0267 14.8567 9.02555 14.8491 9.02479C14.7881 9.01754 14.7266 9.01296 14.6656 9.01144C14.6568 9.01144 14.6484 9.01105 14.64 9.01067C14.6297 9.01067 14.6194 9.00991 14.6095 9.00991C14.5771 9.00991 14.5451 9.01296 14.5126 9.01449C14.4852 9.01601 14.4573 9.0164 14.4299 9.01868C14.3887 9.0225 14.3478 9.02937 14.3066 9.03547C14.2811 9.03967 14.2551 9.04195 14.2296 9.04691C14.185 9.05607 14.1407 9.06789 14.0961 9.07972C14.0751 9.08544 14.0537 9.08964 14.0324 9.09574C13.9671 9.11558 13.9027 9.13846 13.839 9.16517L12.9623 9.53176L12.83 8.40757L12.4382 5.07849C12.4138 4.86754 12.468 4.66498 12.5874 4.52231ZM11.7611 11.6214L12.1948 11.4399L12.6308 11.2579H12.6312L14.4043 10.5163C14.5958 10.4366 14.7755 10.4927 14.8655 10.5331C15.0383 10.6117 15.1756 10.7559 15.2527 10.9398L18.8999 19.6796C18.3517 19.0174 17.9119 18.2689 17.5995 17.4549C17.3496 16.8037 16.74 16.3829 16.0465 16.3829H13.3804L11.5173 12.4622C11.4315 12.2814 11.4189 12.0815 11.4834 11.9133C11.4967 11.8774 11.5166 11.837 11.544 11.7969C11.5902 11.7302 11.6589 11.6642 11.7611 11.6214ZM7.34139 7.99673C7.30019 7.79798 7.33452 7.60229 7.43561 7.46C7.49016 7.38371 7.58896 7.28796 7.75223 7.2666L10.5728 6.89314C10.8208 6.86071 11.0828 7.01979 11.2225 7.27919L11.3773 8.59411L11.5566 10.1192L11.1961 10.2703C10.6953 10.4797 10.3115 10.8772 10.1154 11.3899C9.9083 11.9304 9.93729 12.5503 10.1944 13.0909L11.7588 16.3833H9.07402L7.34139 7.99673ZM42.7685 18.0782L40.4552 31.4967H35.6651C35.2608 31.4967 34.9327 31.8244 34.9327 32.2292C34.9327 32.6335 35.2608 32.9616 35.6651 32.9616H40.2027L39.4409 37.3797H35.7616C35.3569 37.3797 35.0292 37.7074 35.0292 38.1122C35.0292 38.5169 35.3569 38.8446 35.7616 38.8446H39.1884L37.5462 48.3718C37.5298 48.4664 37.4481 48.535 37.352 48.535H12.7438C12.6476 48.535 12.566 48.4664 12.5496 48.3718L10.9074 38.8446H14.3341C14.7385 38.8446 15.0665 38.5169 15.0665 38.1122C15.0665 37.7074 14.7385 37.3797 14.3341 37.3797H10.6548L9.89304 32.9616H14.4531C14.8575 32.9616 15.1856 32.6335 15.1856 32.2292C15.1856 31.8244 14.8575 31.4967 14.4531 31.4967H9.64051L7.32727 18.0782C7.3143 18.0034 7.34368 17.95 7.37076 17.918C7.39746 17.8859 7.44553 17.8478 7.52144 17.8478H16.0465C16.1285 17.8478 16.201 17.8997 16.2319 17.9798C16.909 19.7433 18.0878 21.2501 19.6411 22.3373C21.2307 23.4504 23.1007 24.0386 25.0481 24.0386C25.148 24.0386 25.2491 24.0363 25.3513 24.0329C25.399 24.0314 25.4471 24.0295 25.4952 24.0272C25.5371 24.0249 25.5795 24.0226 25.6218 24.0199C26.0674 23.9932 26.5072 23.936 26.9398 23.8479C26.9413 23.8475 26.9424 23.8475 26.9436 23.8471C28.199 23.5916 29.39 23.0827 30.4546 22.3373C32.008 21.2501 33.1867 19.7433 33.8638 17.9798C33.8947 17.8997 33.9676 17.8478 34.0492 17.8478H42.5747C42.6502 17.8478 42.6983 17.8859 42.725 17.9176C42.7521 17.95 42.7811 18.0034 42.7685 18.0782Z" fill="#FF8635"/>
</svg>
