<svg width="59" height="60" viewBox="0 0 59 60" fill="none" xmlns="http://www.w3.org/2000/svg">
<g clip-path="url(#clip0)">
<path d="M46.6263 37.0171C45.4185 35.7531 43.9617 35.0773 42.4176 35.0773C40.8861 35.0773 39.4168 35.7406 38.1591 37.0046L34.2244 40.947C33.9007 40.7718 33.5769 40.6091 33.2656 40.4464C32.8174 40.2211 32.394 40.0083 32.0329 39.783C28.3472 37.4301 24.9977 34.3639 21.7851 30.3965C20.2287 28.4191 19.1827 26.7545 18.4232 25.0649C19.4442 24.1263 20.3905 23.1501 21.312 22.2114C21.6606 21.861 22.0093 21.498 22.3579 21.1476C24.9728 18.5194 24.9728 15.1152 22.3579 12.4869L18.9586 9.07022C18.5726 8.68224 18.1741 8.28175 17.8006 7.88126C17.0535 7.1053 16.269 6.30431 15.4596 5.55339C14.2518 4.35191 12.8074 3.71362 11.2883 3.71362C9.7692 3.71362 8.2999 4.35191 7.05472 5.55339C7.04227 5.5659 7.04227 5.5659 7.02982 5.57842L2.79623 9.87121C1.20241 11.4732 0.293433 13.4256 0.0942058 15.6909C-0.204636 19.3454 0.866213 22.7496 1.68803 24.9773C3.70521 30.4465 6.71853 35.5153 11.2136 40.947C16.6675 47.4925 23.2295 52.6614 30.7255 56.3034C33.5894 57.6676 37.412 59.2821 41.683 59.5574C41.9445 59.5699 42.2184 59.5824 42.4674 59.5824C45.3438 59.5824 47.7594 58.5437 49.6521 56.4786C49.6646 56.4536 49.6895 56.4411 49.7019 56.416C50.3494 55.6276 51.0965 54.9142 51.881 54.1507C52.4164 53.6376 52.9643 53.0994 53.4997 52.5363C54.7324 51.2472 55.3799 49.7453 55.3799 48.2059C55.3799 46.654 54.72 45.1647 53.4623 43.9131L46.6263 37.0171ZM51.084 50.1959C51.0716 50.1959 51.0716 50.2084 51.084 50.1959C50.5984 50.7215 50.1004 51.1971 49.5649 51.7228C48.7556 52.4987 47.9338 53.3122 47.1618 54.2258C45.9041 55.5775 44.4224 56.2158 42.4799 56.2158C42.2931 56.2158 42.0939 56.2158 41.9071 56.2033C38.209 55.9655 34.7723 54.5137 32.1948 53.2747C25.1471 49.8454 18.9586 44.9769 13.816 38.8068C9.56997 33.663 6.73098 28.9072 4.85077 23.8009C3.69276 20.6845 3.2694 18.2565 3.45617 15.9662C3.58069 14.5019 4.14102 13.2879 5.17451 12.2491L9.42055 7.98138C10.0307 7.40567 10.6782 7.09278 11.3132 7.09278C12.0977 7.09278 12.7327 7.56837 13.1312 7.96886C13.1436 7.98138 13.1561 7.9939 13.1685 8.00641C13.9281 8.71979 14.6503 9.4582 15.4098 10.2467C15.7958 10.6472 16.1943 11.0477 16.5928 11.4607L19.9921 14.8774C21.312 16.204 21.312 17.4305 19.9921 18.7572C19.631 19.1201 19.2823 19.483 18.9212 19.8335C17.8753 20.9098 16.8791 21.911 15.7958 22.8872C15.7709 22.9123 15.746 22.9248 15.7336 22.9498C14.6627 24.0261 14.862 25.0774 15.0861 25.7908C15.0985 25.8284 15.111 25.8659 15.1234 25.9035C16.0075 28.0561 17.2527 30.0836 19.1454 32.4991L19.1578 32.5116C22.5945 36.7668 26.2179 40.0834 30.2149 42.624C30.7255 42.9494 31.2484 43.2123 31.7465 43.4626C32.1948 43.6879 32.6181 43.9006 32.9792 44.1259C33.029 44.1509 33.0788 44.1885 33.1287 44.2135C33.552 44.4263 33.9505 44.5264 34.3614 44.5264C35.3949 44.5264 36.0424 43.8756 36.254 43.6628L40.5125 39.3826C40.9359 38.957 41.6083 38.4439 42.3927 38.4439C43.1647 38.4439 43.7998 38.932 44.1858 39.3575C44.1982 39.37 44.1982 39.37 44.2107 39.3826L51.0716 46.2785C52.3541 47.5551 52.3541 48.8692 51.084 50.1959Z" fill="#FF934B"/>
<path d="M31.8846 14.3893C35.147 14.9399 38.1105 16.4918 40.4763 18.8698C42.8422 21.2477 44.3737 24.2264 44.9341 27.5054C45.071 28.3314 45.7808 28.9071 46.5901 28.9071C46.6898 28.9071 46.7769 28.8946 46.8765 28.8821C47.798 28.7319 48.4081 27.8558 48.2587 26.9297C47.5863 22.9623 45.7185 19.3454 42.8671 16.4793C40.0156 13.6133 36.4171 11.736 32.4699 11.0602C31.5484 10.91 30.6893 11.5232 30.5274 12.4369C30.3655 13.3505 30.9632 14.2391 31.8846 14.3893Z" fill="#FF934B"/>
<path d="M58.9293 26.4415C57.8211 19.9084 54.7579 13.9636 50.0512 9.23279C45.3444 4.50196 39.4299 1.42317 32.93 0.309297C32.0211 0.146597 31.1619 0.772368 31 1.68599C30.8506 2.61213 31.4607 3.4757 32.3822 3.6384C38.1847 4.62711 43.4767 7.39302 47.6854 11.6107C51.894 15.8409 54.6334 21.16 55.6171 26.9922C55.7541 27.8182 56.4638 28.3939 57.2732 28.3939C57.3728 28.3939 57.46 28.3814 57.5596 28.3689C58.4686 28.2312 59.0911 27.3551 58.9293 26.4415Z" fill="#FF934B"/>
</g>
<defs>
<clipPath id="clip0">
<rect width="58.9971" height="59.2988" fill="white" transform="translate(0 0.283539)"/>
</clipPath>
</defs>
</svg>
