<svg width="20" height="20" viewBox="0 0 20 20" fill="none" xmlns="http://www.w3.org/2000/svg">
<circle cx="10" cy="10" r="10" fill="#FF4B4B"/>
<g clip-path="url(#clip0)">
<path d="M10.9162 10.0085L14.81 6.11456C15.0634 5.86128 15.0634 5.45175 14.81 5.19847C14.5567 4.94519 14.1472 4.94519 13.8939 5.19847L9.99995 9.09239L6.10614 5.19847C5.85274 4.94519 5.44334 4.94519 5.19005 5.19847C4.93665 5.45175 4.93665 5.86128 5.19005 6.11456L9.08386 10.0085L5.19005 13.9024C4.93665 14.1557 4.93665 14.5652 5.19005 14.8185C5.31628 14.9448 5.48225 15.0083 5.6481 15.0083C5.81395 15.0083 5.9798 14.9448 6.10614 14.8185L9.99995 10.9246L13.8939 14.8185C14.0202 14.9448 14.1861 15.0083 14.3519 15.0083C14.5178 15.0083 14.6836 14.9448 14.81 14.8185C15.0634 14.5652 15.0634 14.1557 14.81 13.9024L10.9162 10.0085Z" fill="white"/>
</g>
<defs>
<clipPath id="clip0">
<rect width="10" height="10" fill="white" transform="translate(5 5)"/>
</clipPath>
</defs>
</svg>
