<svg width="50" height="50" viewBox="0 0 50 50" fill="none" xmlns="http://www.w3.org/2000/svg">
<g clip-path="url(#clip0)">
<path d="M38.7758 0.613788C38.7093 0.214006 38.3313 -0.0564572 37.9296 0.00991874L31.7239 1.03989C31.253 1.11809 30.8697 1.44845 30.7233 1.90163L29.2976 6.31297H13.4918C12.8715 6.31297 12.3204 6.68261 12.0872 7.25444C11.739 8.10855 11.3381 9.67907 11.4069 12.3086C11.4917 15.545 12.2665 19.4932 13.7097 24.0441C16.5228 32.9133 15.7416 41.6696 15.0807 45.886C15.0612 46.0104 15.0413 46.134 15.0211 46.2568C15.015 46.2942 15.0089 46.332 15.0027 46.3682C14.971 46.5567 14.9385 46.7436 14.9053 46.9278C14.7669 47.6896 14.9729 48.4678 15.4706 49.0625C15.7484 49.3944 16.0993 49.6477 16.4899 49.8064C16.7999 49.9327 17.1351 50.0002 17.4795 50.0002H30.2054C30.5326 50.0002 30.8513 49.9388 31.1479 49.8247C31.5573 49.6672 31.9254 49.4078 32.2143 49.0622C32.7116 48.4678 32.918 47.6896 32.7796 46.9278C32.749 46.76 32.7196 46.5895 32.6906 46.4182C32.6856 46.3884 32.6802 46.3591 32.6753 46.3293C32.574 45.7247 32.4819 45.1017 32.4005 44.47C32.4005 44.4696 32.4005 44.4696 32.4005 44.4693C32.285 43.5713 32.191 42.6565 32.1207 41.7307C32.0901 41.3263 31.7358 41.0242 31.3318 41.0543C30.9266 41.0848 30.6232 41.4377 30.6541 41.8417C30.7172 42.6702 30.799 43.4896 30.8972 44.2976C30.7004 44.4471 30.4592 44.5307 30.2054 44.5307H17.4795C17.2269 44.5307 16.9872 44.4479 16.7908 44.2999C17.4168 39.221 17.627 31.5313 15.1121 23.6012C13.3688 18.105 12.8826 14.3033 12.8757 11.7821H14.5017L13.2247 13.9897C12.9502 14.4646 13.1135 15.0738 13.5893 15.3481L16.7739 17.1834C16.9303 17.2734 17.1015 17.3161 17.2704 17.3161C17.6148 17.3161 17.9504 17.138 18.135 16.8191L19.9735 13.641C20.2483 13.1661 20.0847 12.5565 19.6088 12.2822L18.7404 11.7821H23.465C23.8713 11.7821 24.2004 11.4537 24.2004 11.0482C24.2004 10.6427 23.8713 10.3142 23.465 10.3142H12.9319C13.0427 8.98632 13.2927 8.1921 13.4494 7.80757C13.4559 7.79117 13.4727 7.78087 13.4918 7.78087H28.8229L28.0042 10.3142H26.8866C26.4807 10.3142 26.1512 10.6427 26.1512 11.0482C26.1512 11.4537 26.4807 11.7821 26.8866 11.7821H34.8149C34.8142 11.9401 34.8122 12.1026 34.8077 12.2704C34.7266 15.3691 33.9748 19.1815 32.5728 23.6012C31.1372 28.1274 30.4401 33.0797 30.4997 38.3215C30.5047 38.7235 30.833 39.0466 31.2351 39.0466H31.2435C31.6498 39.0421 31.9751 38.7098 31.9705 38.3047C31.9124 33.2193 32.5866 28.4215 33.9748 24.0441C35.9111 17.9398 36.3591 13.791 36.2715 11.0814C36.2719 11.0703 36.2735 11.0592 36.2735 11.0482C36.2735 11.0169 36.2708 10.9864 36.267 10.9562C36.1928 9.05956 35.8557 7.8873 35.5977 7.25444C35.3645 6.68223 34.813 6.31297 34.1931 6.31297H30.8429L32.0855 2.46812L38.1712 1.45798C38.5717 1.39161 38.8423 1.01357 38.7758 0.613788ZM16.3527 47.188C16.4276 46.7741 16.5037 46.3232 16.5779 45.8399C16.8626 45.944 17.1669 45.9986 17.4795 45.9986H30.2054C30.518 45.9986 30.8227 45.9436 31.1078 45.8395C31.177 46.2946 31.2519 46.7443 31.3322 47.188C31.3926 47.5214 31.3024 47.8617 31.0849 48.1218C30.9756 48.2523 30.841 48.3549 30.6908 48.4251C30.541 48.4949 30.3755 48.5323 30.2054 48.5323H17.4795C17.3518 48.5323 17.2269 48.5113 17.1088 48.4713C16.9127 48.4045 16.7365 48.2847 16.6 48.1218C16.3822 47.8617 16.292 47.5214 16.3527 47.188ZM16.0997 11.9553L18.4626 13.3168L17.0984 15.6754L14.7356 14.3139L16.0997 11.9553ZM34.1931 7.78087C34.2122 7.78087 34.229 7.79117 34.2355 7.80757C34.4048 8.22261 34.649 9.01798 34.7584 10.3142H29.5495L30.3682 7.78087H34.1931Z" fill="#FF8635"/>
<path d="M22.8703 21.1701C23.066 21.3319 23.3034 21.4104 23.5396 21.4104C23.8419 21.4104 24.1423 21.2815 24.3499 21.0313L27.1855 17.6148C27.3648 17.3989 27.4493 17.1265 27.4229 16.8477C27.3965 16.5684 27.2631 16.3167 27.0468 16.1378L23.6233 13.3076C23.1772 12.9384 22.5133 13.0009 22.1437 13.4461L19.308 16.8629C19.1288 17.0785 19.0447 17.3508 19.0711 17.6301C19.0971 17.9089 19.2308 18.1611 19.4468 18.3396L22.8703 21.1701ZM23.0087 14.7053L25.7851 17.001L23.4853 19.7724L20.7085 17.4767L23.0087 14.7053Z" fill="#FF8635"/>
<path d="M23.3882 27.2733L27.2532 30.1595C27.4416 30.3003 27.6656 30.3743 27.8968 30.3743C27.9484 30.3743 28.0004 30.3705 28.0528 30.3628C28.3375 30.322 28.5898 30.1729 28.7622 29.9428L31.6544 26.085C31.8268 25.855 31.899 25.5716 31.8581 25.2874C31.8169 25.0028 31.6674 24.751 31.4369 24.5794L27.5716 21.6928C27.0957 21.3376 26.4188 21.4349 26.063 21.9098L23.1707 25.7673C22.8149 26.2422 22.9124 26.9178 23.3882 27.2733ZM27.0055 23.1031L30.2417 25.5197L27.82 28.7496L24.5838 26.333L27.0055 23.1031Z" fill="#FF8635"/>
<path d="M29.2212 17.3058C29.2338 17.3058 29.2464 17.3054 29.259 17.3051L32.2331 17.1876C32.7548 17.167 33.1622 16.7271 33.1416 16.2064L33.0242 13.2374C33.0032 12.7175 32.5599 12.3116 32.0412 12.3314L29.0672 12.4485C28.5454 12.4691 28.138 12.9094 28.1583 13.4297L28.276 16.3979C28.2959 16.906 28.7163 17.3058 29.2212 17.3058ZM31.5753 13.8188L31.6513 15.7414L29.7246 15.8177L29.6485 13.8947L31.5753 13.8188Z" fill="#FF8635"/>
<path d="M20.8839 21.3338L17.7585 21.6508C17.504 21.6767 17.2746 21.7996 17.1126 21.9979C16.9509 22.1959 16.876 22.4446 16.902 22.6991L17.2192 25.818C17.2452 26.0724 17.3687 26.3013 17.567 26.4627C17.7398 26.6034 17.9512 26.6782 18.1709 26.6782C18.2038 26.6782 18.2367 26.6763 18.2696 26.6732L21.3949 26.3562C21.6499 26.3303 21.8792 26.2071 22.0409 26.0091C22.2026 25.8111 22.2775 25.562 22.2515 25.3079L21.9342 22.1887C21.8807 21.6641 21.4095 21.2823 20.8839 21.3338ZM18.6307 25.1611L18.4167 23.0596L20.5227 22.8459L20.7368 24.9478L18.6307 25.1611Z" fill="#FF8635"/>
</g>
<defs>
<clipPath id="clip0">
<rect width="50" height="50" fill="white"/>
</clipPath>
</defs>
</svg>
