<svg width="59" height="46" viewBox="0 0 59 46" fill="none" xmlns="http://www.w3.org/2000/svg">
<path d="M51.7948 0.82354H7.21441C3.23489 0.82354 0 4.07497 0 8.07485V38.6997C0 42.6996 3.23489 45.951 7.21441 45.951H51.7826C55.7622 45.951 58.9971 42.6996 58.9971 38.6997V8.08712C59.0093 4.08724 55.7744 0.82354 51.7948 0.82354ZM55.7133 38.6997C55.7133 40.8714 53.9555 42.6382 51.7948 42.6382H7.21441C5.05375 42.6382 3.29592 40.8714 3.29592 38.6997V8.08712C3.29592 5.91541 5.05375 4.14859 7.21441 4.14859H51.7826C53.9433 4.14859 55.7011 5.91541 55.7011 8.08712V38.6997H55.7133Z" fill="#FF934B"/>
<path d="M37.2072 23.0069L51.6361 10.0011C52.3074 9.38765 52.3685 8.34474 51.7581 7.65764C51.1478 6.98282 50.1102 6.92147 49.4266 7.53495L29.5289 25.4853L25.6471 22.0008C25.6349 21.9885 25.6227 21.9762 25.6227 21.964C25.5372 21.8781 25.4518 21.8044 25.3541 21.7308L9.55808 7.52268C8.87448 6.9092 7.83688 6.97055 7.22652 7.65764C6.61616 8.34474 6.6772 9.38765 7.3608 10.0011L21.9605 23.1173L7.42183 36.7979C6.76265 37.4236 6.72603 38.4665 7.34859 39.1413C7.67818 39.4849 8.11764 39.6689 8.5571 39.6689C8.95993 39.6689 9.36277 39.5217 9.68015 39.2272L24.4386 25.3503L28.4425 28.9453C28.7599 29.2275 29.1505 29.3625 29.5412 29.3625C29.9318 29.3625 30.3346 29.2153 30.6398 28.9331L34.7536 25.2277L49.4266 39.2395C49.7439 39.5462 50.159 39.6935 50.5618 39.6935C51.0013 39.6935 51.4285 39.5217 51.7581 39.1781C52.3807 38.5156 52.3563 37.4604 51.6971 36.8347L37.2072 23.0069Z" fill="#FF934B"/>
</svg>
