<svg width="30" height="30" viewBox="0 0 30 30" fill="none" xmlns="http://www.w3.org/2000/svg">
<g clip-path="url(#clip0)">
<path d="M26.3377 3.58472H3.66853C1.64494 3.58472 0 5.22966 0 7.25325V22.7467C0 24.7703 1.64494 26.4153 3.66853 26.4153H26.3315C28.3551 26.4153 30 24.7703 30 22.7467V7.25945C30.0062 5.23587 28.3613 3.58472 26.3377 3.58472ZM28.3302 22.7467C28.3302 23.8454 27.4364 24.7393 26.3377 24.7393H3.66853C2.56983 24.7393 1.67598 23.8454 1.67598 22.7467V7.25945C1.67598 6.16076 2.56983 5.2669 3.66853 5.2669H26.3315C27.4302 5.2669 28.324 6.16076 28.324 7.25945V22.7467H28.3302Z" fill="#DFDFDF"/>
<path d="M18.9199 14.8077L26.2569 8.22789C26.5984 7.91753 26.6294 7.38991 26.319 7.0423C26.0087 6.70089 25.481 6.66986 25.1334 6.98022L15.0155 16.0615L13.0416 14.2987C13.0353 14.2925 13.0291 14.2862 13.0291 14.28C12.9857 14.2366 12.9422 14.1993 12.8926 14.1621L4.8603 6.97401C4.51269 6.66365 3.98506 6.69469 3.6747 7.0423C3.36433 7.38991 3.39537 7.91753 3.74298 8.22789L11.1669 14.8635L3.77402 21.7847C3.43882 22.1013 3.4202 22.6289 3.73677 22.9703C3.90437 23.1441 4.12783 23.2372 4.3513 23.2372C4.55614 23.2372 4.76098 23.1627 4.92237 23.0137L12.427 15.9933L14.463 17.812C14.6244 17.9548 14.8231 18.0231 15.0217 18.0231C15.2203 18.0231 15.4252 17.9486 15.5803 17.8058L17.6722 15.9312L25.1334 23.02C25.2948 23.1751 25.5059 23.2496 25.7107 23.2496C25.9342 23.2496 26.1514 23.1627 26.319 22.9889C26.6356 22.6537 26.6232 22.1199 26.288 21.8033L18.9199 14.8077Z" fill="#DFDFDF"/>
</g>
<defs>
<clipPath id="clip0">
<rect width="30" height="30" fill="white"/>
</clipPath>
</defs>
</svg>
