<svg width="49" height="60" viewBox="0 0 49 60" fill="none" xmlns="http://www.w3.org/2000/svg">
<path d="M24.4881 0.545746C11.4519 0.545746 0.839844 11.2121 0.839844 24.315C0.839844 25.8068 0.975895 27.311 1.26037 28.7779C1.27274 28.865 1.32221 29.126 1.42116 29.5736C1.77984 31.1772 2.31168 32.7561 3.00431 34.2603C5.55219 40.2896 11.1551 49.5512 23.4492 59.4716C23.7584 59.7202 24.1295 59.8445 24.5005 59.8445C24.8716 59.8445 25.2426 59.7202 25.5518 59.4716C37.8336 49.5512 43.4488 40.2896 45.9967 34.2603C46.6893 32.7561 47.2212 31.1897 47.5799 29.5736C47.6788 29.126 47.7283 28.865 47.7406 28.7779C48.0127 27.311 48.1612 25.8068 48.1612 24.315C48.1364 11.2121 37.5244 0.545746 24.4881 0.545746ZM44.4259 28.1936C44.4259 28.2185 44.4136 28.2434 44.4136 28.2682C44.4012 28.3304 44.3641 28.5169 44.3022 28.8028C44.3022 28.8152 44.3022 28.8152 44.3022 28.8277C43.993 30.22 43.5354 31.575 42.9294 32.8804C42.917 32.8928 42.917 32.9177 42.9046 32.9301C40.5917 38.4373 35.5207 46.8411 24.4881 56.0032C13.4556 46.8411 8.38454 38.4373 6.07166 32.9301C6.05929 32.9177 6.05929 32.8928 6.04692 32.8804C5.45324 31.5875 4.99561 30.22 4.67403 28.8277C4.67403 28.8152 4.67403 28.8152 4.67403 28.8028C4.59982 28.5169 4.57509 28.3304 4.56272 28.2682C4.56272 28.2434 4.55035 28.2185 4.55035 28.1812C4.30298 26.9008 4.1793 25.6079 4.1793 24.3026C4.1793 13.0519 13.2948 3.88985 24.4881 3.88985C35.6815 3.88985 44.797 13.0519 44.797 24.3026C44.797 25.6203 44.6733 26.9256 44.4259 28.1936Z" fill="#FF934B"/>
<path d="M24.4878 9.48407C16.2134 9.48407 9.47266 16.2593 9.47266 24.576C9.47266 32.8928 16.2134 39.668 24.4878 39.668C32.7623 39.668 39.503 32.8928 39.503 24.576C39.503 16.2593 32.7623 9.48407 24.4878 9.48407ZM24.4878 36.3115C18.0439 36.3115 12.8121 31.0405 12.8121 24.576C12.8121 18.1116 18.0563 12.8406 24.4878 12.8406C30.9194 12.8406 36.1636 18.1116 36.1636 24.576C36.1636 31.0405 30.9317 36.3115 24.4878 36.3115Z" fill="#FF934B"/>
</svg>
