<svg width="48" height="50" viewBox="0 0 48 50" fill="none" xmlns="http://www.w3.org/2000/svg">
<g clip-path="url(#clip0)">
<path d="M21.0033 36.1268H33.1479C33.5368 36.1268 33.8524 35.7991 33.8524 35.3947C33.8524 34.99 33.5368 34.6623 33.1479 34.6623H21.0033C20.6144 34.6623 20.2988 34.99 20.2988 35.3947C20.2988 35.7991 20.6144 36.1268 21.0033 36.1268Z" fill="#FF8635"/>
<path d="M14.9042 36.1268H17.7252C18.1141 36.1268 18.4297 35.7991 18.4297 35.3947C18.4297 34.99 18.1145 34.6623 17.7252 34.6623H14.9042C14.5153 34.6623 14.1997 34.99 14.1997 35.3947C14.1997 35.7991 14.5153 36.1268 14.9042 36.1268Z" fill="#FF8635"/>
<path d="M30.6803 38.7803H17.3718C16.9829 38.7803 16.6673 39.108 16.6673 39.5123C16.6673 39.9167 16.9825 40.2448 17.3718 40.2448H30.6803C31.0692 40.2448 31.3848 39.9171 31.3848 39.5123C31.3848 39.108 31.0692 38.7803 30.6803 38.7803Z" fill="#FF8635"/>
<path d="M36.7669 5.26772C36.7669 3.80402 35.6213 2.61307 34.2134 2.61307H13.8387C12.4308 2.61307 11.2852 3.80402 11.2852 5.26772C11.2852 6.7318 12.4308 7.92275 13.8387 7.92275H34.2131C35.6213 7.92275 36.7669 6.7318 36.7669 5.26772ZM34.2134 6.45829H13.8387C13.2076 6.45829 12.6939 5.92423 12.6939 5.2681C12.6939 4.61159 13.2076 4.07791 13.8387 4.07791H34.2131C34.8445 4.07791 35.3579 4.61159 35.3579 5.2681C35.3579 5.92423 34.8445 6.45829 34.2134 6.45829Z" fill="#FF8635"/>
<path d="M45.932 23.4074C45.9309 23.3998 45.9298 23.3925 45.9287 23.3853C45.9243 23.3559 45.9181 23.3269 45.9104 23.2991C45.91 23.2972 45.9096 23.2956 45.9092 23.2937L45.9078 23.2892C45.9074 23.2872 45.9067 23.285 45.9063 23.2831L42.0209 9.74161V1.96762C42.0209 0.828935 41.13 -0.0976562 40.0347 -0.0976562H8.01737C6.92209 -0.0976562 6.03119 0.828935 6.03119 1.96762V9.74161L2.14579 23.2827C2.14543 23.285 2.14469 23.2869 2.14432 23.2892L2.14286 23.2937C2.14249 23.2953 2.14212 23.2972 2.14176 23.2987C2.13405 23.3269 2.12781 23.3559 2.12341 23.3853C2.12231 23.3925 2.12121 23.3998 2.12011 23.4074C2.11607 23.4387 2.1135 23.4704 2.1135 23.5028V46.5226C2.1135 48.3861 3.57204 49.9024 5.36448 49.9024H42.6876C44.4801 49.9024 45.9386 48.3861 45.9386 46.5226V23.5032C45.9386 23.4704 45.936 23.4387 45.932 23.4074ZM7.2604 10.5808H19.9656L19.4237 16.6138C19.3782 17.1219 19.5415 17.6297 19.8721 18.0073C20.2027 18.3846 20.6738 18.6009 21.1648 18.6009H26.8874C27.3779 18.6009 27.8494 18.3846 28.18 18.0073C28.5106 17.6297 28.6739 17.1219 28.6284 16.6138L28.0865 10.5808H32.5208C32.9097 10.5808 33.2253 10.2528 33.2253 9.84842C33.2253 9.44368 32.9097 9.116 32.5208 9.116H7.43982V1.96762C7.43982 1.63651 7.69887 1.36681 8.01737 1.36681H40.0347C40.3532 1.36681 40.6123 1.63651 40.6123 1.96762V9.116H35.7989C35.41 9.116 35.0948 9.44368 35.0948 9.84842C35.0948 10.2528 35.41 10.5808 35.7989 10.5808H40.7917L44.2893 22.7707H3.76284L7.2604 10.5808ZM20.8264 16.75L21.3805 10.5805H26.6716L27.2257 16.75C27.2378 16.885 27.1765 16.9777 27.1387 17.0208C27.1009 17.0639 27.018 17.1364 26.8874 17.1364H21.1651C21.0345 17.1364 20.9516 17.0639 20.9138 17.0208C20.876 16.9777 20.8143 16.885 20.8264 16.75ZM44.53 46.5226C44.53 47.5785 43.7033 48.438 42.6876 48.438H5.36448C4.34883 48.438 3.52214 47.5785 3.52214 46.5226V24.2352H44.53V46.5226Z" fill="#FF8635"/>
</g>
<defs>
<clipPath id="clip0">
<rect width="48" height="50" fill="white"/>
</clipPath>
</defs>
</svg>
