<svg width="22" height="27" viewBox="0 0 22 27" fill="none" xmlns="http://www.w3.org/2000/svg">
<path d="M21.3606 10.6885C21.3606 10.6713 21.3596 10.6542 21.3593 10.637C21.3038 4.80071 16.5395 0.0696411 10.6903 0.0696411C4.84111 0.0696411 0.0768721 4.80076 0.0214155 10.6371C0.0211074 10.6543 0.0200806 10.6713 0.0200806 10.6886C0.0200806 10.6943 0.0204913 10.7 0.0204913 10.7057C0.02044 10.7171 0.0200806 10.7285 0.0200806 10.7399C0.0200806 10.7574 0.0215696 10.7746 0.0226993 10.7918C0.0774884 12.5335 1.51053 13.9338 3.26532 13.9338H4.72573C5.28153 15.1273 6.18686 16.1263 7.3096 16.7984C7.03514 16.9031 6.76684 17.0202 6.50527 17.1491C6.48417 17.1574 6.46317 17.1663 6.44247 17.1766C6.42327 17.1862 6.40509 17.197 6.38707 17.2079C3.33007 18.7686 1.23191 21.9491 1.23191 25.6105C1.23191 26.0359 1.57677 26.3807 2.00214 26.3807H19.3169C19.7423 26.3807 20.0872 26.0359 20.0872 25.6105C20.0872 21.9491 17.989 18.7686 14.9319 17.2079C14.9139 17.197 14.8957 17.1862 14.8765 17.1766C14.8558 17.1663 14.8348 17.1574 14.8137 17.1491C14.5522 17.0201 14.2838 16.9031 14.0094 16.7984C15.1322 16.1262 16.0375 15.1272 16.5933 13.9337H18.1154C18.7403 13.9337 19.3243 13.7557 19.8201 13.4483V15.2175H18.1154C17.69 15.2175 17.3451 15.5624 17.3451 15.9877C17.3451 16.4131 17.69 16.758 18.1154 16.758H20.5904C21.0158 16.758 21.3606 16.4131 21.3606 15.9877V10.7399C21.3606 10.7285 21.3602 10.7171 21.3602 10.7057C21.3602 10.6999 21.3606 10.6943 21.3606 10.6885ZM4.23068 12.3933H3.26532C2.33103 12.3933 1.57025 11.6378 1.56095 10.7057C1.56106 10.6828 1.56157 10.66 1.56183 10.6371C1.5892 9.72084 2.34258 8.98378 3.26532 8.98378H4.4979C4.25209 9.67098 4.11771 10.4108 4.11771 11.1815C4.11771 11.5955 4.15679 12.0005 4.23068 12.3933ZM2.80965 24.8403C3.05161 22.3555 4.45158 20.205 6.46121 18.9363L9.41341 24.8403H2.80965ZM7.83813 18.2454C8.71465 17.9086 9.66579 17.7233 10.6595 17.7233C11.6532 17.7234 12.6044 17.9086 13.4809 18.2455L10.6596 23.8882L7.83813 18.2454ZM14.8578 18.9363C16.8675 20.205 18.2674 22.3555 18.5094 24.8403H11.9059L14.8578 18.9363ZM10.6595 16.1829C7.90175 16.1829 5.65817 13.9393 5.65817 11.1816C5.65817 8.42382 7.90175 6.18019 10.6595 6.18019C13.4173 6.18019 15.6609 8.42382 15.6609 11.1816C15.6609 13.9393 13.4173 16.1829 10.6595 16.1829ZM16.0249 7.44322C14.8413 5.74974 12.8778 4.63968 10.6595 4.63968C8.44122 4.63968 6.47765 5.74974 5.29416 7.44332H3.26532C2.85268 7.44332 2.45817 7.52157 2.09472 7.66263C3.36042 4.138 6.73552 1.6101 10.6903 1.6101C14.6451 1.6101 18.0202 4.13795 19.2859 7.66253C18.9225 7.52147 18.5281 7.44322 18.1154 7.44322H16.0249ZM18.1154 12.3933H17.0884C17.1623 12.0005 17.2014 11.5955 17.2014 11.1815C17.2014 10.4108 17.067 9.67093 16.8211 8.98368H18.1154C19.0382 8.98368 19.7914 9.72074 19.8189 10.637C19.8191 10.6599 19.8196 10.6827 19.8197 10.7057C19.8104 11.6377 19.0497 12.3933 18.1154 12.3933Z" fill="#FF8635"/>
</svg>
