<svg width="39" height="35" viewBox="0 0 39 35" xmlns="http://www.w3.org/2000/svg">
<path d="M3.09389 3.4252C5.11274 1.21647 7.8829 0 10.8947 0C13.1459 0 15.2076 0.717937 17.0226 2.1337C17.9385 2.84833 18.7683 3.72264 19.5 4.74312C20.2314 3.72294 21.0615 2.84833 21.9777 2.1337C23.7924 0.717937 25.8541 0 28.1053 0C31.1171 0 33.8876 1.21647 35.9064 3.4252C37.9012 5.60813 39 8.59033 39 11.8228C39 15.1499 37.7708 18.1954 35.1319 21.4075C32.7712 24.2808 29.3782 27.1975 25.4491 30.575C24.1075 31.7285 22.5867 33.0359 21.0077 34.4285C20.5905 34.7971 20.0552 35 19.5 35C18.9451 35 18.4095 34.7971 17.9929 34.4291C16.4138 33.0362 14.8922 31.7282 13.55 30.5741C9.62146 27.1972 6.22854 24.2808 3.86781 21.4072C1.22887 18.1954 0 15.1499 0 11.8225C0 8.59033 1.09884 5.60813 3.09389 3.4252Z"/>
</svg>
