<svg width="26" height="27" viewBox="0 0 26 27" fill="none" xmlns="http://www.w3.org/2000/svg">
<g clip-path="url(#clip0)">
<path d="M22.7906 0.193542H3.20935C2.78868 0.193542 2.44763 0.534589 2.44763 0.955261V25.4318C2.44763 25.8525 2.78868 26.1935 3.20935 26.1935H22.7906C23.2113 26.1935 23.5523 25.8525 23.5523 25.4318V0.955261C23.5523 0.534589 23.2113 0.193542 22.7906 0.193542ZM22.0289 24.6701H3.97107V1.71698H22.0289V24.6701Z" fill="#FF8635"/>
<path d="M15.2282 4.84609C14.8587 4.47656 14.3674 4.27303 13.8448 4.27303C13.5476 4.27303 13.2603 4.33894 12.9999 4.46376C12.7395 4.33889 12.4523 4.27303 12.155 4.27303C11.6325 4.27303 11.1412 4.47651 10.7714 4.84609C10.0086 5.60898 10.0086 6.85028 10.7715 7.61306L12.4613 9.30281C12.6101 9.45155 12.805 9.52594 12.9999 9.52594C13.1949 9.52594 13.3898 9.45155 13.5385 9.30281L15.2283 7.61306C15.9911 6.85017 15.9911 5.60888 15.2282 4.84609ZM14.151 6.53584L12.9999 7.687L11.8487 6.53584C11.6799 6.36694 11.6799 6.09211 11.8486 5.92337C11.9306 5.84151 12.0394 5.79641 12.1551 5.79641C12.2707 5.79641 12.3795 5.84151 12.4613 5.92326C12.7587 6.22064 13.2409 6.22074 13.5384 5.92337C13.6203 5.84151 13.7291 5.79641 13.8448 5.79641C13.9604 5.79641 14.0692 5.84151 14.151 5.92326C14.3199 6.09211 14.3199 6.36694 14.151 6.53584Z" fill="#FF8635"/>
<path d="M7.82731 20.8137C7.68563 20.6721 7.48911 20.5908 7.28857 20.5908C7.08845 20.5908 6.89192 20.6721 6.75024 20.8137C6.60805 20.9554 6.52686 21.1519 6.52686 21.3521C6.52686 21.5526 6.60811 21.7491 6.75024 21.8908C6.89197 22.0325 7.0885 22.1142 7.28857 22.1142C7.48911 22.1142 7.68563 22.0325 7.82731 21.8908C7.96899 21.7491 8.05029 21.5526 8.05029 21.3521C8.05029 21.152 7.96899 20.9554 7.82731 20.8137Z" fill="#FF8635"/>
<path d="M7.82731 16.7341C7.68563 16.5924 7.48911 16.5111 7.28857 16.5111C7.08845 16.5111 6.89192 16.5924 6.75024 16.7341C6.60805 16.8762 6.52686 17.0723 6.52686 17.2728C6.52686 17.4734 6.60811 17.6699 6.75024 17.8116C6.89197 17.9533 7.0885 18.0346 7.28857 18.0346C7.48911 18.0346 7.68563 17.9533 7.82731 17.8116C7.96899 17.6699 8.05029 17.4734 8.05029 17.2728C8.05029 17.0727 7.96899 16.8762 7.82731 16.7341Z" fill="#FF8635"/>
<path d="M7.82731 12.6548C7.68563 12.5131 7.48911 12.4318 7.28857 12.4318C7.08845 12.4318 6.89192 12.5131 6.75024 12.6548C6.60805 12.7969 6.52686 12.993 6.52686 13.1935C6.52686 13.3941 6.60811 13.5901 6.75024 13.7323C6.89197 13.874 7.08799 13.9553 7.28857 13.9553C7.48911 13.9553 7.68563 13.874 7.82731 13.7323C7.96899 13.5901 8.05029 13.3941 8.05029 13.1935C8.05029 12.993 7.96899 12.7969 7.82731 12.6548Z" fill="#FF8635"/>
<path d="M18.7112 20.5906H12.1841C11.7635 20.5906 11.4224 20.9317 11.4224 21.3523C11.4224 21.773 11.7635 22.114 12.1841 22.114H18.7112C19.1319 22.114 19.4729 21.773 19.4729 21.3523C19.4729 20.9317 19.1319 20.5906 18.7112 20.5906Z" fill="#FF8635"/>
<path d="M18.7112 16.5111H12.1841C11.7635 16.5111 11.4224 16.8522 11.4224 17.2729C11.4224 17.6935 11.7635 18.0346 12.1841 18.0346H18.7112C19.1319 18.0346 19.4729 17.6935 19.4729 17.2729C19.4729 16.8522 19.1319 16.5111 18.7112 16.5111Z" fill="#FF8635"/>
<path d="M18.7112 12.4318H12.1841C11.7634 12.4318 11.4224 12.7729 11.4224 13.1935C11.4224 13.6142 11.7635 13.9553 12.1841 13.9553H18.7112C19.1319 13.9553 19.4729 13.6142 19.4729 13.1935C19.4729 12.7729 19.1319 12.4318 18.7112 12.4318Z" fill="#FF8635"/>
</g>
<defs>
<clipPath id="clip0">
<rect width="26" height="26" fill="white" transform="translate(0 0.193542)"/>
</clipPath>
</defs>
</svg>
