<svg width="21" height="21" viewBox="0 0 21 21" fill="none" xmlns="http://www.w3.org/2000/svg">
<path d="M14.1124 12.8611C16.5612 9.47096 15.7422 4.77666 12.2843 2.37645C8.8264 -0.0237521 4.03819 0.77861 1.58998 4.16929C-0.85824 7.5594 -0.0398283 12.2531 3.41868 14.6533C5.88678 16.3665 9.1499 16.4984 11.7531 14.9911L17.4095 20.5033C18.0202 21.1336 19.0364 21.1588 19.6793 20.5601C20.3222 19.9619 20.3479 18.9657 19.7378 18.3354C19.7185 18.3153 19.6998 18.2969 19.6793 18.278L14.1124 12.8611ZM7.84653 13.375C5.114 13.3755 2.89862 11.2053 2.89686 8.52637C2.89628 5.84743 5.10991 3.67549 7.84302 3.67434C10.572 3.67319 12.7862 5.83997 12.7915 8.51547C12.7962 11.195 10.5837 13.3704 7.85004 13.375C7.84887 13.375 7.84828 13.375 7.84653 13.375Z" fill="#B2B2B2"/>
</svg>
