<svg width="52" height="52" viewBox="0 0 52 52" fill="none" xmlns="http://www.w3.org/2000/svg">
<path d="M16.3984 33.0504H44.0465C47.1815 33.0504 49.7391 30.6737 49.7391 27.7603V16.9501C49.7391 16.9405 49.7391 16.9214 49.7391 16.9118C49.7391 16.883 49.7391 16.8639 49.7391 16.8351C49.7391 16.8159 49.7391 16.7968 49.7288 16.7776C49.7288 16.7584 49.7185 16.7297 49.7185 16.7105C49.7185 16.6913 49.7081 16.6722 49.7081 16.653C49.6978 16.6338 49.6978 16.6147 49.6875 16.5859C49.6772 16.5668 49.6772 16.5476 49.6669 16.5284C49.6566 16.5093 49.6566 16.4901 49.6463 16.4709C49.636 16.4518 49.6256 16.4326 49.6153 16.4038C49.605 16.3847 49.5947 16.3655 49.5844 16.3559C49.5741 16.3368 49.5638 16.3176 49.5535 16.2984C49.5431 16.2793 49.5328 16.2697 49.5225 16.2505C49.5122 16.2313 49.4916 16.2122 49.4813 16.193C49.471 16.1738 49.4606 16.1643 49.44 16.1451C49.4297 16.1259 49.4091 16.1163 49.3988 16.0972C49.3885 16.078 49.3678 16.0684 49.3575 16.0493C49.3472 16.0301 49.3266 16.0205 49.3163 16.0109C49.2956 15.9918 49.2853 15.9822 49.2647 15.963C49.2441 15.9534 49.2338 15.9343 49.2131 15.9247C49.1925 15.9151 49.1719 15.8959 49.1513 15.8863C49.1306 15.8767 49.1203 15.8672 49.0997 15.8576C49.0791 15.848 49.0584 15.8384 49.0378 15.8192C49.0172 15.8097 48.9966 15.8001 48.9759 15.7905C48.9553 15.7809 48.9347 15.7713 48.9141 15.7617C48.8934 15.7522 48.8728 15.7426 48.8522 15.733C48.8316 15.7234 48.8109 15.7234 48.7903 15.7138C48.7697 15.7042 48.7388 15.6947 48.7181 15.6947C48.6975 15.6947 48.6769 15.6851 48.6666 15.6851C48.6356 15.6755 48.615 15.6755 48.5841 15.6755C48.5738 15.6755 48.5634 15.6659 48.5428 15.6659L13.5005 11.1712V6.62865C13.5005 6.58073 13.5005 6.53281 13.4902 6.49448C13.4902 6.4849 13.4902 6.47531 13.4799 6.45615C13.4799 6.42739 13.4696 6.39864 13.4696 6.36989C13.4593 6.34114 13.4593 6.32198 13.449 6.29323C13.449 6.27406 13.4387 6.26447 13.4387 6.24531C13.4284 6.21656 13.418 6.18781 13.4077 6.15906C13.4077 6.14947 13.3974 6.13031 13.3974 6.12072C13.3871 6.09197 13.3768 6.0728 13.3562 6.04405C13.3458 6.03447 13.3458 6.0153 13.3355 6.00572C13.3252 5.98655 13.3149 5.96739 13.2943 5.94822C13.284 5.92905 13.2737 5.91947 13.2633 5.9003C13.253 5.88113 13.2427 5.87155 13.2324 5.85238C13.2221 5.83322 13.2015 5.81405 13.1912 5.79488C13.1808 5.7853 13.1705 5.77572 13.1602 5.76613C13.1396 5.74696 13.119 5.7278 13.0983 5.70863C13.088 5.69905 13.0777 5.68946 13.0674 5.67988C13.0468 5.66071 13.0262 5.64155 12.9952 5.62238C12.9849 5.6128 12.9643 5.60321 12.954 5.59363C12.9333 5.57446 12.9127 5.56488 12.8921 5.54571C12.8612 5.52654 12.8302 5.50738 12.8096 5.49779C12.7993 5.48821 12.789 5.48821 12.7787 5.47863C12.7374 5.45946 12.6858 5.44029 12.6446 5.42112L5.04419 2.45023C4.33262 2.17231 3.51792 2.47898 3.21886 3.14025C2.91979 3.80151 3.2498 4.55861 3.96137 4.83653L10.7058 7.48158V13.3467V14.2763V21.4064V27.7795V35.8296C10.7058 38.513 12.8715 40.7364 15.6662 41.0718C15.1609 41.8577 14.8618 42.7777 14.8618 43.7552C14.8618 46.6399 17.3884 48.9782 20.4822 48.9782C23.576 48.9782 26.1026 46.6303 26.1026 43.7552C26.1026 42.7969 25.8241 41.8864 25.3291 41.1198H37.8486C37.3536 41.896 37.0752 42.7969 37.0752 43.7552C37.0752 46.6399 39.6018 48.9782 42.6956 48.9782C45.7893 48.9782 48.3159 46.6303 48.3159 43.7552C48.3159 40.8802 45.7893 38.5322 42.6956 38.5322H16.3984C14.7896 38.5322 13.4902 37.3151 13.4902 35.8296V32.3221C14.3359 32.7821 15.3362 33.0504 16.3984 33.0504ZM23.3285 43.7456C23.3285 45.2023 22.0497 46.3811 20.4925 46.3811C18.9353 46.3811 17.6565 45.1927 17.6565 43.7456C17.6565 42.2985 18.9353 41.1102 20.4925 41.1102C22.0497 41.1102 23.3285 42.2889 23.3285 43.7456ZM45.5418 43.7456C45.5418 45.2023 44.2631 46.3811 42.7059 46.3811C41.1487 46.3811 39.8699 45.1927 39.8699 43.7456C39.8699 42.2985 41.1487 41.1102 42.7059 41.1102C44.2631 41.1102 45.5418 42.2889 45.5418 43.7456ZM44.0465 30.4629H16.3984C14.7896 30.4629 13.4902 29.2458 13.4902 27.7603V21.3873V14.2571V13.778L46.9547 18.0618V27.7507C46.9547 29.2554 45.645 30.4629 44.0465 30.4629Z" fill="#2F2F2F"/>
</svg>
