<svg width="50" height="50" viewBox="0 0 50 50" fill="none" xmlns="http://www.w3.org/2000/svg">
<path d="M46.671 23.0995L34.4113 20.166L35.006 19.5709C35.4149 19.162 35.4149 18.4967 35.006 18.0878L32.4032 15.485C31.9943 15.076 31.3294 15.076 30.9201 15.485L28.3173 18.0878C28.1617 18.2434 28.0655 18.4364 28.0285 18.6386L23.8812 17.646L21.7202 15.485C21.3112 15.076 20.6463 15.076 20.237 15.485L17.6342 18.0878C17.2253 18.4967 17.2253 19.162 17.6342 19.5709L20.2275 22.1637L18.9644 27.4402L17.6342 28.7708C17.4363 28.9688 17.3272 29.232 17.3272 29.5124C17.3272 29.7924 17.4363 30.056 17.6342 30.254L18.1645 30.7842L15.4118 42.2866C15.3077 42.7223 15.3794 43.1724 15.6136 43.5543C15.8478 43.9357 16.2167 44.2035 16.6523 44.3077L40.2447 49.9534C40.3752 49.9847 40.5072 49.9999 40.638 49.9999C40.944 49.9999 41.2449 49.9156 41.512 49.7516C41.8938 49.5174 42.1612 49.1485 42.2654 48.7129L47.9111 25.1205C48.1266 24.2214 47.5701 23.315 46.671 23.0995ZM31.6617 16.8346L33.6564 18.8293L32.7237 19.762L29.5784 19.0094C29.5769 18.9815 29.5743 18.9541 29.5697 18.9266L31.6617 16.8346ZM18.9839 18.8293L20.9786 16.8346L21.8049 17.6609C21.4425 17.886 21.1648 18.248 21.0576 18.6943L20.6311 20.4765L18.9839 18.8293ZM46.4734 24.7764L40.8276 48.3688C40.8116 48.4348 40.7704 48.4718 40.7387 48.4912C40.7067 48.5111 40.6548 48.5309 40.5892 48.5153H40.5888L16.9964 42.8695C16.9308 42.8539 16.8934 42.8123 16.874 42.7806C16.8545 42.7486 16.8343 42.6967 16.8503 42.6311L22.4957 19.0388C22.5178 18.948 22.5991 18.8869 22.6883 18.8869C22.7036 18.8869 22.7189 18.8885 22.7345 18.8923L46.3269 24.538C46.4329 24.5632 46.4985 24.6704 46.4734 24.7764Z" fill="#FF8635"/>
<path d="M23.6107 26.9806L27.1908 27.837C27.2725 27.8568 27.3541 27.8659 27.4346 27.8659C27.9087 27.8659 28.3394 27.5417 28.4546 27.061L29.3114 23.4813C29.4457 22.9191 29.0978 22.3518 28.5355 22.2175L24.9554 21.3608C24.3935 21.2261 23.8263 21.5744 23.6916 22.1367L22.8348 25.7164C22.77 25.9887 22.8146 26.2703 22.9611 26.5091C23.1076 26.7479 23.3384 26.9153 23.6107 26.9806ZM25.0298 22.8992L27.7729 23.5553L27.1164 26.2989L24.3733 25.6424L25.0298 22.8992Z" fill="#FF8635"/>
<path d="M30.9574 28.7384L34.5375 29.5952C34.6191 29.6146 34.7007 29.6241 34.7812 29.6241C35.255 29.6241 35.6861 29.2999 35.8013 28.8192L36.6581 25.2395C36.7923 24.6769 36.4444 24.11 35.8822 23.9753L32.3021 23.1189C31.7402 22.9843 31.1729 23.3322 31.0383 23.8945L30.1815 27.4746C30.0468 28.0368 30.3951 28.6037 30.9574 28.7384ZM32.3764 24.657L35.1196 25.3135L34.4631 28.0567L31.7199 27.4006L32.3764 24.657Z" fill="#FF8635"/>
<path d="M43.2286 25.7335L39.6489 24.8771C39.3766 24.8119 39.095 24.8565 38.8562 25.003C38.6174 25.1495 38.4503 25.3803 38.3851 25.6527L37.5283 29.2331C37.394 29.795 37.7419 30.3619 38.3039 30.4966H38.3042L41.884 31.353C41.9656 31.3728 42.048 31.3823 42.13 31.3823C42.3215 31.3823 42.5096 31.3297 42.6767 31.2271C42.9155 31.0802 43.0829 30.8494 43.1478 30.5774L44.0045 26.9973C44.1392 26.4351 43.7913 25.8682 43.2286 25.7335ZM41.8099 29.8149L39.0664 29.1584L39.7229 26.4152L42.4665 27.0717L41.8099 29.8149Z" fill="#FF8635"/>
<path d="M27.5532 30.8281C27.6184 30.5557 27.5734 30.2742 27.4269 30.0354C27.2804 29.7966 27.05 29.6291 26.7773 29.5643L23.1976 28.7075C22.6353 28.5724 22.0681 28.9211 21.9338 29.4834L21.077 33.0631C21.0118 33.3355 21.0568 33.617 21.2033 33.8558C21.3498 34.0946 21.5802 34.2617 21.8529 34.3269L25.4326 35.1837C25.5142 35.2032 25.5959 35.2127 25.6768 35.2127C26.1505 35.2127 26.5816 34.8884 26.6964 34.4078L27.5532 30.8281ZM25.3586 33.6456L22.6151 32.9891L23.2716 30.2456L26.0147 30.9021L25.3586 33.6456Z" fill="#FF8635"/>
<path d="M34.8999 32.5863C34.9648 32.3139 34.9202 32.0324 34.7737 31.7936C34.6272 31.5548 34.3964 31.3873 34.124 31.3221L30.5443 30.4657C29.982 30.331 29.4148 30.6789 29.2801 31.2412L28.4237 34.8213C28.3585 35.0937 28.4031 35.3752 28.5496 35.614C28.6961 35.8528 28.9269 36.0199 29.1993 36.0851L32.7793 36.9419C32.861 36.9613 32.9434 36.9709 33.0254 36.9709C33.2165 36.9709 33.4046 36.9182 33.572 36.8156C33.8105 36.6691 33.9779 36.4383 34.0432 36.166L34.8999 32.5863ZM32.705 35.4034L29.9618 34.7469L30.6179 32.0038L33.3615 32.6603L32.705 35.4034Z" fill="#FF8635"/>
<path d="M41.4708 33.0803L37.8907 32.2235C37.3288 32.0888 36.7615 32.4371 36.6269 32.9994L35.7701 36.5791C35.7053 36.8515 35.7499 37.133 35.8964 37.3718C36.0429 37.6106 36.2736 37.7781 36.546 37.8433L40.1257 38.6997C40.2073 38.7195 40.2897 38.7291 40.3718 38.7291C40.5633 38.7291 40.7513 38.6764 40.9184 38.5738C41.1572 38.4273 41.3247 38.1965 41.3899 37.9238L42.2463 34.3441C42.381 33.7818 42.0331 33.2149 41.4708 33.0803ZM40.0517 37.1616L37.3086 36.5051L37.9651 33.7616L40.7082 34.4185L40.0517 37.1616Z" fill="#FF8635"/>
<path d="M25.019 36.9106L21.4393 36.0542C20.8774 35.9195 20.3102 36.2674 20.1755 36.8297L19.3187 40.4098C19.1841 40.9721 19.5324 41.5389 20.0946 41.6736L23.6744 42.5304C23.7564 42.5498 23.838 42.559 23.9185 42.559C24.3923 42.559 24.8233 42.2351 24.9385 41.7545L25.7949 38.1744C25.9296 37.6121 25.5817 37.0452 25.019 36.9106ZM23.6004 40.9919L20.8572 40.3358L21.5133 37.5923L24.2569 38.2488L23.6004 40.9919Z" fill="#FF8635"/>
<path d="M32.3658 38.6688L28.7861 37.812C28.5137 37.7472 28.2322 37.7918 27.9934 37.9383C27.7546 38.0848 27.5875 38.3155 27.5223 38.5879L26.6651 42.168C26.5312 42.7303 26.8791 43.2972 27.441 43.4318H27.4414L31.0211 44.2882C31.1028 44.3081 31.1848 44.3172 31.2653 44.3172C31.7391 44.3172 32.1701 43.993 32.2849 43.5123L33.1417 39.9326C33.2069 39.6602 33.1623 39.3787 33.0158 39.1399C32.869 38.9015 32.6382 38.734 32.3658 38.6688ZM30.9471 42.7501L28.2036 42.0936L28.8601 39.3505L31.6036 40.0066L30.9471 42.7501Z" fill="#FF8635"/>
<path d="M39.7125 40.427L36.1327 39.5702C35.8604 39.505 35.5789 39.55 35.3401 39.6965C35.1013 39.843 34.9338 40.0734 34.8686 40.3461L34.0122 43.9258C33.9469 44.1982 33.9916 44.4797 34.138 44.7185C34.2845 44.9573 34.5153 45.1248 34.7877 45.1897L38.3678 46.0464C38.4494 46.0659 38.5311 46.0754 38.6115 46.0754C39.0853 46.0754 39.5164 45.7512 39.6316 45.2705L40.4884 41.6908C40.5532 41.4184 40.5086 41.1369 40.3621 40.8981C40.2156 40.6593 39.9848 40.4919 39.7125 40.427ZM38.2938 44.5083L35.5502 43.8518L36.2068 41.1083L38.9499 41.7648L38.2938 44.5083Z" fill="#FF8635"/>
<path d="M20.9785 11.7969C21.2471 11.7969 21.5157 11.6951 21.7201 11.4906L24.3233 8.88747C24.7318 8.47892 24.7318 7.81364 24.3229 7.4047L21.7201 4.80194C21.3112 4.393 20.6459 4.393 20.237 4.80194L17.6342 7.4047C17.4362 7.60269 17.3271 7.8659 17.3271 8.14628C17.3271 8.42628 17.4362 8.68987 17.6342 8.88786L20.237 11.4906C20.4414 11.6951 20.71 11.7973 20.9785 11.7969ZM20.9785 6.15158L22.9733 8.14628L20.9785 10.141L18.9838 8.14628L20.9785 6.15158Z" fill="#FF8635"/>
<path d="M25.5783 16.832C25.7767 17.0299 26.0399 17.139 26.3203 17.139C26.6003 17.139 26.8639 17.0299 27.0618 16.832L29.6646 14.2292C29.8626 14.0312 29.9717 13.768 29.9717 13.4876C29.9717 13.2076 29.8626 12.944 29.6646 12.7464L27.0618 10.1437C26.8639 9.94529 26.6003 9.83619 26.3203 9.83619C26.0399 9.83619 25.7767 9.94529 25.5787 10.1433L22.9759 12.746C22.7779 12.944 22.6688 13.2076 22.6688 13.4876C22.6688 13.768 22.7779 14.0312 22.9759 14.2292L25.5783 16.832ZM26.3203 11.4933L28.3146 13.488L26.3203 15.4823L24.3256 13.488L26.3203 11.4933Z" fill="#FF8635"/>
<path d="M19.2886 13.488C19.2886 13.2076 19.1795 12.9444 18.9816 12.7464L16.3784 10.1433C15.9698 9.73472 15.3046 9.73472 14.8952 10.1437L12.2925 12.7464C11.8839 13.1554 11.8839 13.8206 12.2925 14.2292L14.8952 16.832C15.1001 17.0364 15.3687 17.1387 15.6372 17.1387C15.9058 17.1387 16.1743 17.0364 16.3788 16.832L18.9816 14.2292C19.1795 14.0312 19.2886 13.768 19.2886 13.488ZM15.6372 15.4823L13.6425 13.4876L15.6372 11.4933L17.6315 13.4876L15.6372 15.4823Z" fill="#FF8635"/>
<path d="M13.9469 18.8293C13.9469 18.5493 13.8378 18.2857 13.6398 18.0878L11.0371 15.485C10.8391 15.287 10.5759 15.1779 10.2955 15.1779C10.0151 15.1779 9.75189 15.287 9.55391 15.485L6.95114 18.0878C6.75316 18.2857 6.64406 18.5493 6.64406 18.8293C6.64406 19.1093 6.75316 19.3729 6.95114 19.5709L9.55391 22.1737C9.75189 22.3717 10.0151 22.4808 10.2955 22.4808C10.5759 22.4808 10.8391 22.3717 11.0371 22.1737L13.6398 19.5709C13.8378 19.3729 13.9469 19.1093 13.9469 18.8293ZM10.2955 20.824L8.30116 18.8293L10.2955 16.8346L12.2902 18.8293L10.2955 20.824Z" fill="#FF8635"/>
<path d="M12.2929 24.9122L14.8956 27.5154C15.1001 27.7195 15.3687 27.8217 15.6372 27.8217C15.9058 27.8217 16.1743 27.7195 16.3788 27.515L18.9816 24.9122C19.1795 24.7143 19.2886 24.451 19.2886 24.1707C19.2886 23.8907 19.1795 23.6275 18.9816 23.4295L16.3788 20.8263C15.9698 20.4178 15.3046 20.4178 14.8956 20.8263L12.2925 23.4295C11.8839 23.838 11.8839 24.5033 12.2929 24.9122ZM15.6372 22.1763L17.6315 24.1707L15.6372 26.1654L13.6425 24.1707L15.6372 22.1763Z" fill="#FF8635"/>
<path d="M16.1377 32.4817C16.4265 32.1933 16.4268 31.7249 16.1381 31.4361L3.68538 18.9693C3.60794 18.8919 3.60794 18.7664 3.68538 18.6893L20.8389 1.5358C20.916 1.45874 21.0415 1.45874 21.1185 1.5358L38.2721 18.6893C38.3198 18.7374 38.3301 18.7919 38.3301 18.8293C38.3297 19.2375 38.6604 19.569 39.069 19.569H39.0694C39.4775 19.569 39.8083 19.2383 39.8087 18.8301C39.8087 18.3819 39.6343 17.9607 39.3173 17.6437L22.1642 0.490188C21.5103 -0.163269 20.4468 -0.163269 19.7929 0.490188L2.63939 17.6437C2.32315 17.9603 2.14844 18.3815 2.14844 18.8293C2.14844 19.2772 2.32277 19.6983 2.63939 20.0146L15.0917 32.4814C15.2363 32.6259 15.4255 32.698 15.6151 32.698C15.8043 32.698 15.9931 32.6259 16.1377 32.4817Z" fill="#FF8635"/>
</svg>
