<svg width="36" height="35" viewBox="0 0 36 35" fill="none" xmlns="http://www.w3.org/2000/svg">
<g clip-path="url(#clip0)">
<path d="M35.069 0H0.0689659V35H35.069V0Z" fill="#61A8DE"/>
<path d="M27.6281 7.72604L4.22313 16.8467C3.46504 17.1421 3.51097 18.23 4.29133 18.4604L10.2388 20.2167L12.4584 27.2597C12.6902 27.9953 13.6225 28.2183 14.1622 27.6673L17.2371 24.5276L23.2705 28.9562C24.0089 29.4982 25.0604 29.0956 25.2479 28.1991L29.2439 9.09438C29.4395 8.15857 28.5189 7.3789 27.6281 7.72604ZM24.6937 11.9658L13.8222 21.5795C13.7139 21.6753 13.6449 21.808 13.6288 21.9517L13.2102 25.6725C13.1966 25.7939 13.0268 25.8099 12.9905 25.6933L11.2684 20.1443C11.1896 19.8903 11.2924 19.615 11.5184 19.4749L24.3565 11.5126C24.6517 11.3293 24.954 11.7358 24.6937 11.9658Z" fill="white"/>
</g>
<defs>
<clipPath id="clip0">
<rect x="0.0689659" width="35" height="35" rx="5" fill="white"/>
</clipPath>
</defs>
</svg>
