<svg width="34" height="35" viewBox="0 0 34 35" fill="none" xmlns="http://www.w3.org/2000/svg">
<g clip-path="url(#clip0)">
<path d="M33.931 0H0.137932V35H33.931V0Z" fill="#7D3DAF"/>
<path d="M27.722 11.282L27.7153 11.2543C27.1755 8.99409 24.7418 6.56876 22.5069 6.06419L22.4817 6.05881C18.8668 5.34457 15.2015 5.34457 11.5874 6.05881L11.5614 6.06419C9.32723 6.56876 6.89358 8.99409 6.35302 11.2543L6.34709 11.282C5.67972 14.4384 5.67972 17.6394 6.34709 20.7959L6.35302 20.8235C6.87052 22.9873 9.12295 25.3012 11.2744 25.9376V28.4606C11.2744 29.3737 12.3489 29.8222 12.9599 29.1633L15.428 26.5061C15.9633 26.5371 16.4989 26.5544 17.0345 26.5544C18.8542 26.5544 20.6746 26.3762 22.4817 26.0191L22.5069 26.0137C24.7418 25.5092 27.1755 23.0838 27.7153 20.8236L27.722 20.796C28.3893 17.6394 28.3893 14.4384 27.722 11.282ZM25.7688 20.3382C25.4085 21.8127 23.5606 23.6459 22.0924 23.9846C20.1703 24.3632 18.233 24.525 16.2977 24.4695C16.2592 24.4684 16.2222 24.4838 16.1954 24.5124C15.9207 24.8044 14.3933 26.4284 14.3933 26.4284L12.4764 28.4659C12.3363 28.6172 12.0901 28.5143 12.0901 28.3054V24.1258C12.0901 24.0567 12.0425 23.9981 11.977 23.9848C11.9767 23.9847 11.9763 23.9846 11.9759 23.9845C10.5077 23.6459 8.66061 21.8127 8.29949 20.3381C7.69887 17.485 7.69887 14.5927 8.29949 11.7396C8.66061 10.2651 10.5077 8.43184 11.9759 8.09316C15.3328 7.43191 18.7363 7.43191 22.0924 8.09316C23.5613 8.43184 25.4085 10.2651 25.7688 11.7396C26.3701 14.5928 26.3701 17.4851 25.7688 20.3382Z" fill="white"/>
<path d="M20.2283 22.2674C20.0026 22.1965 19.7875 22.1488 19.5877 22.0629C17.5177 21.1734 15.6126 20.0259 14.1035 18.2668C13.2454 17.2665 12.5737 16.1371 12.0059 14.942C11.7367 14.3752 11.5098 13.7862 11.2785 13.2011C11.0676 12.6675 11.3782 12.1162 11.7053 11.7142C12.0122 11.3369 12.4072 11.0481 12.8349 10.8353C13.1687 10.6692 13.498 10.7649 13.7418 11.058C14.2689 11.6916 14.753 12.3576 15.1451 13.092C15.3861 13.5438 15.32 14.096 14.8831 14.4034C14.7769 14.4781 14.6801 14.5658 14.5812 14.6502C14.4945 14.7242 14.4128 14.7989 14.3534 14.8991C14.2446 15.0823 14.2395 15.2984 14.3095 15.4976C14.8482 17.0312 15.7564 18.2236 17.2467 18.8659C17.4851 18.9687 17.7246 19.0883 17.9994 19.0551C18.4595 18.9995 18.6085 18.4768 18.9309 18.2037C19.246 17.9368 19.6487 17.9333 19.9882 18.1557C20.3277 18.3783 20.6569 18.6172 20.984 18.8587C21.3052 19.0957 21.6249 19.3276 21.9212 19.5977C22.206 19.8575 22.3041 20.1984 22.1437 20.551C21.8501 21.1967 21.4228 21.7339 20.8065 22.0768C20.6324 22.1735 20.4246 22.2048 20.2283 22.2674C20.0026 22.1964 20.4246 22.2048 20.2283 22.2674Z" fill="white"/>
<path d="M17.0402 10.0969C19.7478 10.1755 21.9717 12.0366 22.4482 14.8091C22.5294 15.2815 22.5584 15.7644 22.5945 16.2439C22.6097 16.4456 22.4994 16.6372 22.2893 16.6398C22.0722 16.6425 21.9746 16.4544 21.9605 16.2528C21.9326 15.8538 21.9132 15.4529 21.8602 15.0572C21.5799 12.9682 19.9715 11.2399 17.9639 10.869C17.6618 10.8132 17.3526 10.7985 17.0465 10.7652C16.8531 10.7442 16.5997 10.7321 16.5568 10.483C16.5209 10.2742 16.6911 10.1079 16.883 10.0972C16.9352 10.0942 16.9877 10.0967 17.0402 10.0969C19.7478 10.1755 16.9877 10.0967 17.0402 10.0969Z" fill="white"/>
<path d="M21.155 15.6216C21.1505 15.6566 21.1481 15.7389 21.1283 15.8165C21.0565 16.098 20.6443 16.1333 20.5494 15.8491C20.5213 15.7648 20.5171 15.6689 20.517 15.5781C20.516 14.9841 20.3913 14.3908 20.1022 13.874C19.8049 13.3429 19.3507 12.8963 18.818 12.6262C18.4959 12.4628 18.1475 12.3613 17.7945 12.3008C17.6402 12.2743 17.4842 12.2583 17.3292 12.2359C17.1413 12.2089 17.041 12.0849 17.0499 11.8931C17.0582 11.7134 17.185 11.5841 17.3741 11.5952C17.9954 11.6318 18.5956 11.7708 19.148 12.0738C20.2714 12.69 20.9131 13.6626 21.1005 14.9613C21.1089 15.0201 21.1225 15.0784 21.1268 15.1374C21.1375 15.2833 21.1441 15.4293 21.155 15.6216C21.1505 15.6566 21.1441 15.4293 21.155 15.6216Z" fill="white"/>
<path d="M19.4709 15.5537C19.2443 15.5579 19.1231 15.4281 19.0998 15.2129C19.0835 15.0629 19.0707 14.911 19.0361 14.765C18.9681 14.4777 18.8206 14.2113 18.5871 14.0352C18.477 13.952 18.3521 13.8914 18.2213 13.8524C18.0551 13.8027 17.8826 13.8163 17.7167 13.7742C17.5367 13.7286 17.4371 13.5776 17.4654 13.4026C17.4912 13.2434 17.6407 13.1191 17.8087 13.1317C18.8585 13.2102 19.6087 13.7723 19.7158 15.0523C19.7234 15.1426 19.7323 15.238 19.7129 15.3244C19.6798 15.4724 19.574 15.5465 19.4709 15.5537C19.2443 15.5579 19.574 15.5465 19.4709 15.5537Z" fill="white"/>
</g>
<defs>
<clipPath id="clip0">
<rect x="0.137932" width="33.7931" height="35" rx="5" fill="white"/>
</clipPath>
</defs>
</svg>
