<svg width="36" height="35" viewBox="0 0 36 35" fill="none" xmlns="http://www.w3.org/2000/svg">
<g clip-path="url(#clip0)">
<path d="M35.069 0H0.0689697V35H35.069V0Z" fill="#1BD741"/>
<path d="M5.32928 29.753L7.04368 23.664C5.94122 21.7911 5.36077 19.6601 5.36077 17.471C5.36077 10.7307 10.8444 5.24704 17.5848 5.24704C24.3251 5.24704 29.8087 10.7307 29.8087 17.471C29.8087 24.2113 24.3251 29.695 17.5848 29.695C15.4845 29.695 13.428 29.1574 11.6087 28.1366L5.32928 29.753ZM11.9297 25.9127L12.3039 26.1412C13.8901 27.1095 15.7162 27.6214 17.5848 27.6214C23.1817 27.6214 27.7351 23.0679 27.7351 17.471C27.7351 11.8741 23.1817 7.32063 17.5848 7.32063C11.9878 7.32063 7.43436 11.8741 7.43436 17.471C7.43436 19.4212 7.98863 21.315 9.0371 22.9477L9.28908 23.34L8.30182 26.8466L11.9297 25.9127Z" fill="white"/>
<path d="M14.1509 11.7816L13.3577 11.7384C13.1086 11.7248 12.8642 11.808 12.6759 11.9716C12.2914 12.3055 11.6765 12.9511 11.4877 13.7924C11.206 15.0468 11.6413 16.5827 12.7677 18.1187C13.8941 19.6547 15.9933 22.1123 19.7052 23.1619C20.9014 23.5002 21.8423 23.2722 22.5683 22.8077C23.1433 22.4399 23.5397 21.8496 23.6825 21.1822L23.8092 20.5907C23.8494 20.4027 23.754 20.2119 23.5793 20.1314L20.8986 18.8958C20.7246 18.8156 20.5182 18.8663 20.4012 19.018L19.3488 20.3823C19.2693 20.4853 19.1332 20.5262 19.0103 20.483C18.2897 20.2297 15.8755 19.2187 14.5509 16.6671C14.4934 16.5564 14.5077 16.4221 14.5892 16.3277L15.595 15.1642C15.6977 15.0454 15.7237 14.8783 15.6619 14.7339L14.5064 12.0305C14.4449 11.8866 14.307 11.7901 14.1509 11.7816Z" fill="white"/>
</g>
<defs>
<clipPath id="clip0">
<rect x="0.0689697" width="35" height="35" rx="5" fill="white"/>
</clipPath>
</defs>
</svg>
